<?xml version="1.0" encoding="UTF-8"?>
<svg version="1.1" xmlns="http://www.w3.org/2000/svg" width="1024" height="1024">
<path d="M0 0 C337.92 0 675.84 0 1024 0 C1024 337.92 1024 675.84 1024 1024 C686.08 1024 348.16 1024 0 1024 C0 686.08 0 348.16 0 0 Z " fill="#000000" transform="translate(0,0)"/>
<path d="M0 0 C0.75725372 -0.00988449 1.51450745 -0.01976898 2.29470825 -0.029953 C33.74470275 -0.35595242 33.74470275 -0.35595242 48.92578125 4.23828125 C50.35253174 4.6569043 50.35253174 4.6569043 51.80810547 5.08398438 C82.86624614 14.35272143 108.6972889 30.47400215 130.92578125 54.23828125 C130.92578125 54.89828125 130.92578125 55.55828125 130.92578125 56.23828125 C129.16357422 57.62011719 129.16357422 57.62011719 126.66796875 59.22265625 C125.74226074 59.82215088 124.81655273 60.42164551 123.86279297 61.03930664 C122.8523291 61.68246826 121.84186523 62.32562988 120.80078125 62.98828125 C119.25994873 63.97526001 119.25994873 63.97526001 117.68798828 64.98217773 C115.52766488 66.36563526 113.36600969 67.74701505 111.203125 69.12646484 C108.00332296 71.18831583 104.83672916 73.29324273 101.67578125 75.4140625 C99.71753114 76.7097612 97.75920093 78.00533887 95.80078125 79.30078125 C94.88409668 79.92629883 93.96741211 80.55181641 93.02294922 81.19628906 C92.16330566 81.75799805 91.30366211 82.31970703 90.41796875 82.8984375 C89.6688623 83.39996338 88.91975586 83.90148926 88.14794922 84.41821289 C85.92578125 85.23828125 85.92578125 85.23828125 83.3203125 84.51586914 C80.24499288 82.87505067 77.743503 80.82638335 75.05078125 78.61328125 C52.50225829 60.84250647 24.21318104 55.07629987 -4.07421875 57.23828125 C-25.27633129 59.98882558 -43.82207124 68.39790672 -60.296875 81.953125 C-62.07421875 83.23828125 -62.07421875 83.23828125 -64.07421875 83.23828125 C-64.07421875 83.89828125 -64.07421875 84.55828125 -64.07421875 85.23828125 C-67.60424955 83.92747331 -70.65139009 82.37290619 -73.8125 80.33203125 C-74.70783447 79.75759277 -75.60316895 79.1831543 -76.52563477 78.59130859 C-77.46979248 77.97980957 -78.4139502 77.36831055 -79.38671875 76.73828125 C-81.36026969 75.46941821 -83.33423134 74.20119376 -85.30859375 72.93359375 C-86.28248047 72.30743164 -87.25636719 71.68126953 -88.25976562 71.03613281 C-92.82831972 68.1177747 -97.43747314 65.26466499 -102.06176758 62.43554688 C-105.60155336 60.24715832 -108.88054713 57.90671765 -112.07421875 55.23828125 C-105.79197503 40.19579767 -84.52138043 28.28935271 -71.07421875 20.23828125 C-69.96175781 19.56023437 -68.84929687 18.8821875 -67.703125 18.18359375 C-51.70822706 8.8338427 -33.34693342 3.66528287 -15.07421875 1.23828125 C-14.01235352 1.06844727 -12.95048828 0.89861328 -11.85644531 0.72363281 C-7.8915019 0.21483424 -3.99031999 0.04266465 0 0 Z " fill="#14C489" transform="translate(510.07421875,246.76171875)"/>
<path d="M0 0 C6.82968064 3.06870673 10.94257596 7.50624568 14.26953125 14.16015625 C14.93153882 21.82207995 15.15746242 28.88588202 10.26953125 35.16015625 C6.01200464 39.669906 1.74722708 42.92549391 -4.625 43.35546875 C-5.58792969 43.33226562 -6.55085938 43.3090625 -7.54296875 43.28515625 C-8.51878906 43.26710938 -9.49460937 43.2490625 -10.5 43.23046875 C-11.23605469 43.20726562 -11.97210937 43.1840625 -12.73046875 43.16015625 C-13.06159668 44.13311646 -13.06159668 44.13311646 -13.39941406 45.12573242 C-15.21163931 49.25708744 -17.59500435 52.91940816 -20.02734375 56.7109375 C-20.55777283 57.54385818 -21.0882019 58.37677887 -21.63470459 59.23493958 C-27.6588181 68.66551305 -33.81198649 78.0111628 -39.98046875 87.34765625 C-41.16521308 89.14373773 -42.34986385 90.93988092 -43.53442383 92.73608398 C-52.22375897 105.90590996 -60.94743746 119.05260029 -69.73046875 132.16015625 C-73.00150306 130.5952477 -75.36296933 128.87260822 -78.04296875 126.41015625 C-78.92339844 125.60320312 -79.80382812 124.79625 -80.7109375 123.96484375 C-81.71810192 123.03065251 -82.72457223 122.09571257 -83.73046875 121.16015625 C-84.2817041 120.6487207 -84.83293945 120.13728516 -85.40087891 119.61035156 C-89.85636082 115.47338393 -94.29512642 111.31869516 -98.73046875 107.16015625 C-99.38885742 106.54301758 -100.04724609 105.92587891 -100.72558594 105.29003906 C-103.39573151 102.78702241 -106.06553093 100.28363667 -108.73535156 97.78027344 C-110.73358209 95.90674964 -112.73199455 94.03342012 -114.73046875 92.16015625 C-115.39143555 91.54043945 -116.05240234 90.92072266 -116.73339844 90.28222656 C-128.88549638 78.33344214 -128.88549638 78.33344214 -142 67.546875 C-142.85658203 66.86044922 -142.85658203 66.86044922 -143.73046875 66.16015625 C-143.73046875 65.50015625 -143.73046875 64.84015625 -143.73046875 64.16015625 C-146.96661539 65.55128989 -148.78656369 67.10736825 -151.015625 69.81640625 C-154.54188486 73.9792868 -158.28703977 77.82940119 -162.16796875 81.66015625 C-162.85173584 82.34013672 -163.53550293 83.02011719 -164.23999023 83.72070312 C-167.12784648 86.59240768 -170.0216995 89.45804063 -172.91503906 92.32421875 C-175.043126 94.43408412 -177.16809792 96.5470527 -179.29296875 98.66015625 C-179.93484131 99.29373047 -180.57671387 99.92730469 -181.23803711 100.58007812 C-184.26166073 103.58752842 -187.17286006 106.63105032 -189.94384766 109.87353516 C-194.39500394 115.02568053 -199.24077079 119.78228753 -204.07020187 124.57505417 C-205.78732723 126.27926334 -207.50117488 127.98671089 -209.21426392 129.69497681 C-212.84183881 133.31121462 -216.47337289 136.92346003 -220.10546875 140.53515625 C-224.3376973 144.74376435 -228.5682772 148.95400334 -232.79469681 153.16844559 C-234.4839346 154.85119876 -236.17615108 156.53091708 -237.86849976 158.21054077 C-238.89734299 159.23575384 -239.92604741 160.26110624 -240.95458984 161.28662109 C-241.85503021 162.18182465 -242.75547058 163.0770282 -243.68319702 163.99935913 C-245.7649239 165.9869595 -245.7649239 165.9869595 -246.73046875 168.16015625 C-250.89922488 167.63419169 -252.99866402 165.35509158 -255.98046875 162.53515625 C-256.96427879 161.61528082 -257.9486565 160.69601214 -258.93359375 159.77734375 C-259.8565625 158.91367187 -260.77953125 158.05 -261.73046875 157.16015625 C-263.68069169 155.4338478 -265.64811443 153.73079418 -267.625 152.03515625 C-269.28569727 150.55624217 -270.89848386 149.02353051 -272.4921875 147.47265625 C-272.97623047 147.00794922 -273.46027344 146.54324219 -273.95898438 146.06445312 C-275.35478248 144.7209741 -276.7363525 143.36275979 -278.1171875 142.00390625 C-280.51370851 139.93060592 -280.51370851 139.93060592 -283.05244446 140.18818665 C-286.73225416 141.52374704 -288.71459529 143.97123447 -291.19213867 146.86791992 C-292.25624658 148.06532783 -293.32285303 149.26051909 -294.39169312 150.45370483 C-294.94141659 151.07003658 -295.49114006 151.68636833 -296.05752182 152.3213768 C-298.71922484 155.24692376 -301.50378197 158.04286758 -304.3059082 160.83325195 C-305.1507919 161.67642109 -305.1507919 161.67642109 -306.01274395 162.53662395 C-307.18307278 163.70255181 -308.35438709 164.8674912 -309.52663612 166.03148842 C-311.40130742 167.89309376 -313.27257099 169.75807032 -315.14311218 171.62382507 C-319.10687049 175.57631279 -323.0746124 179.52478578 -327.04296875 183.47265625 C-331.66687694 188.07280981 -336.28905358 192.67467772 -340.90703392 197.2807827 C-342.73667806 199.1040216 -344.56934016 200.92418733 -346.4021759 202.74421692 C-353.29848448 209.60961474 -359.9653779 216.52102706 -365.88671875 224.2578125 C-373.91036318 234.14471605 -373.91036318 234.14471605 -380.02294922 235.76953125 C-385.69746921 236.25158155 -391.29004218 235.33939349 -396.90820312 234.5859375 C-401.40599983 234.08490547 -405.88236554 233.85042661 -410.40234375 233.66015625 C-411.26263687 233.62357407 -412.12292999 233.58699188 -413.0092926 233.54930115 C-414.77171303 233.47567946 -416.53416993 233.40292576 -418.29666138 233.33102417 C-429.91515868 232.85070187 -441.46284578 232.1555276 -453.02818298 230.93302917 C-463.15995971 229.87564362 -473.31775838 229.21647459 -483.48046875 228.53515625 C-485.46095713 228.40002698 -487.44142601 228.26461153 -489.421875 228.12890625 C-494.19118916 227.80270917 -498.96074588 227.48031925 -503.73046875 227.16015625 C-503.73046875 226.83015625 -503.73046875 226.50015625 -503.73046875 226.16015625 C-494.34758084 225.75954604 -484.96436233 225.36803831 -475.58067131 224.98670197 C-471.21863668 224.8091811 -466.85674949 224.6290598 -462.49511719 224.44189453 C-437.89304029 223.38873646 -413.35478536 222.95373848 -388.73046875 223.16015625 C-388.43126022 222.53530334 -388.1320517 221.91045044 -387.82377625 221.2666626 C-386.63583024 218.97781357 -385.34575203 217.56108036 -383.5 215.76953125 C-382.5419043 214.82787109 -382.5419043 214.82787109 -381.56445312 213.8671875 C-380.56381836 212.89845703 -380.56381836 212.89845703 -379.54296875 211.91015625 C-378.23440827 210.63675113 -376.92841326 209.36070439 -375.625 208.08203125 C-375.04596924 207.5209668 -374.46693848 206.95990234 -373.87036133 206.38183594 C-372.07630832 204.51921387 -370.40422224 202.62154992 -368.7253418 200.65722656 C-364.24832061 195.50991721 -359.41344762 190.73055973 -354.5741272 185.9286499 C-352.88054013 184.24801385 -351.19026098 182.56410996 -349.50073242 180.87939453 C-345.30685857 176.69877614 -341.10751476 172.52366645 -336.9083252 168.34838867 C-333.34839044 164.80829908 -329.79059054 161.26608903 -326.23550415 157.72113037 C-324.58314343 156.07517519 -322.9277641 154.4322998 -321.2722168 152.78955078 C-316.40570791 147.94645529 -311.65062223 143.06351696 -307.1864624 137.84100342 C-305.13502291 135.47275391 -302.93804927 133.27267377 -300.70703125 131.07421875 C-299.83175781 130.20667969 -298.95648438 129.33914063 -298.0546875 128.4453125 C-297.16394531 127.56746094 -296.27320313 126.68960938 -295.35546875 125.78515625 C-293.55371474 124.00881485 -291.75411692 122.23028286 -289.95703125 120.44921875 C-289.16893066 119.67271973 -288.38083008 118.8962207 -287.56884766 118.09619141 C-285.67284534 116.28789668 -285.67284534 116.28789668 -284.73046875 114.16015625 C-280.59264661 114.67263881 -278.7796129 116.83446607 -275.98046875 119.78515625 C-270.70133751 125.21797399 -265.17503634 130.13884103 -259.34375 134.96484375 C-258.74860596 135.46056885 -258.15346191 135.95629395 -257.5402832 136.46704102 C-256.34673174 137.45997665 -255.14872598 138.44758566 -253.94604492 139.42944336 C-252.5035276 140.62951721 -251.1119459 141.89029234 -249.73046875 143.16015625 C-249.73046875 143.82015625 -249.73046875 144.48015625 -249.73046875 145.16015625 C-249.07046875 145.16015625 -248.41046875 145.16015625 -247.73046875 145.16015625 C-247.76140625 143.86078125 -247.76140625 143.86078125 -247.79296875 142.53515625 C-246.59230767 138.72129164 -246.28798909 138.61558478 -243.04296875 136.72265625 C-238.68627859 134.07326452 -235.45417653 130.89681165 -232.0859375 127.125 C-225.25811572 119.65445977 -218.14823188 112.48900558 -210.98046875 105.34765625 C-210.40788519 104.77667143 -209.83530163 104.20568661 -209.24536705 103.61739922 C-205.0772496 99.46144815 -200.90439016 95.31027708 -196.73046875 91.16015625 C-192.52449368 86.97796035 -188.32028062 82.79402104 -184.12023926 78.60586548 C-182.45950876 76.95153615 -180.79576423 75.30028189 -179.13183594 73.64916992 C-172.92600233 67.47720073 -172.92600233 67.47720073 -167.125 60.92578125 C-166.33480469 60.013125 -165.54460937 59.10046875 -164.73046875 58.16015625 C-164.07046875 58.16015625 -163.41046875 58.16015625 -162.73046875 58.16015625 C-162.46766113 57.57137695 -162.20485352 56.98259766 -161.93408203 56.37597656 C-160.67430694 54.05676384 -159.35042854 52.55066222 -157.47265625 50.70703125 C-156.53486328 49.77890625 -156.53486328 49.77890625 -155.578125 48.83203125 C-154.92714844 48.1978125 -154.27617187 47.56359375 -153.60546875 46.91015625 C-152.94675781 46.26046875 -152.28804688 45.61078125 -151.609375 44.94140625 C-149.98750232 43.34303898 -148.36114065 41.74953728 -146.73046875 40.16015625 C-143.61887724 41.55068905 -141.42613866 43.18353042 -138.97265625 45.5390625 C-138.26995605 46.20824707 -137.56725586 46.87743164 -136.84326172 47.56689453 C-136.10479004 48.2782959 -135.36631836 48.98969727 -134.60546875 49.72265625 C-133.06456713 51.19090749 -131.52290567 52.65836172 -129.98046875 54.125 C-128.87251953 55.18050049 -128.87251953 55.18050049 -127.7421875 56.25732422 C-125.39861712 58.47404601 -123.01489151 60.6402816 -120.60546875 62.78515625 C-112.44896534 70.05987551 -104.52437358 77.59191995 -96.5625 85.078125 C-92.6253333 88.77948624 -88.68211101 92.47425198 -84.73046875 96.16015625 C-84.18890137 96.66579102 -83.64733398 97.17142578 -83.08935547 97.69238281 C-81.68358103 99.00010098 -80.2698614 100.29926415 -78.85546875 101.59765625 C-77.71464844 102.64759766 -77.71464844 102.64759766 -76.55078125 103.71875 C-74.85612514 105.36708596 -74.85612514 105.36708596 -72.73046875 105.16015625 C-71.22444171 102.96023658 -69.84277494 100.76035854 -68.48046875 98.47265625 C-64.49045365 91.92327347 -60.33272653 85.5168903 -56.04296875 79.16015625 C-50.78003743 71.32795425 -45.67226741 63.41012055 -40.66796875 55.41015625 C-40.04897705 54.42273438 -39.42998535 53.4353125 -38.79223633 52.41796875 C-36.06380248 48.03395902 -33.3713439 43.62979757 -30.78515625 39.16015625 C-30.17969971 38.11601562 -30.17969971 38.11601562 -29.56201172 37.05078125 C-28.18462852 33.91911493 -29.01942869 31.44187961 -29.73046875 28.16015625 C-30.34731547 20.98816233 -30.72945996 14.83653506 -26.29296875 8.875 C-18.79728951 0.64849204 -11.28295987 -3.4704383 0 0 Z " fill="#D99937" transform="translate(653.73046875,322.83984375)"/>
<path d="M0 0 C0.66 0 1.32 0 2 0 C2.65272532 2.64429651 3.29726828 5.29017506 3.9375 7.9375 C4.21110352 9.04061523 4.21110352 9.04061523 4.49023438 10.16601562 C13.10878481 46.05052563 5.19760511 87.29591056 -13 119 C-13.37882324 119.66435059 -13.75764648 120.32870117 -14.14794922 121.01318359 C-19.85482472 130.88156602 -26.4060311 139.52249127 -34 148 C-34.76183594 148.89460937 -35.52367187 149.78921875 -36.30859375 150.7109375 C-41.65598583 156.90666807 -47.5109894 162.02719772 -54 167 C-54.87527344 167.67933594 -55.75054688 168.35867188 -56.65234375 169.05859375 C-76.47437921 183.99061165 -105.60383379 200 -131 200 C-131 182.18 -131 164.36 -131 146 C-128.03 145.01 -125.06 144.02 -122 143 C-106.00654768 137.12609648 -92.83337171 129.33682836 -80 118 C-79.31679688 117.40058594 -78.63359375 116.80117188 -77.9296875 116.18359375 C-62.22222025 101.46181776 -50.57113761 80.3407298 -48.10009766 58.94091797 C-46.87565972 48.54878679 -43.67679886 42.06690545 -37.35498047 33.82470703 C-35.03926407 30.70620895 -33.00262897 27.4124256 -30.9375 24.125 C-27.14241578 18.14241578 -27.14241578 18.14241578 -26 17 C-24.67116187 16.7271136 -23.33657518 16.4820443 -22 16.25 C-12.75242709 14.22434117 -6.59465239 9.54279028 -1 2 C-0.67 1.34 -0.34 0.68 0 0 Z " fill="#ECB232" transform="translate(675,362)"/>
<path d="M0 0 C3.68716771 1.32009708 6.46525789 2.92961356 9.5625 5.3125 C17.27028239 11.038874 25.36765749 16.15650555 33.43994141 21.34960938 C35.90609918 22.93946504 38.36626664 24.53811923 40.82421875 26.140625 C41.58202637 26.63393311 42.33983398 27.12724121 43.12060547 27.63549805 C44.53312765 28.55510064 45.94496528 29.47575599 47.35595703 30.39770508 C49.22840758 31.61317605 51.1115408 32.80959176 53 34 C53.62438965 34.40589355 54.2487793 34.81178711 54.89208984 35.22998047 C58.18543735 37.41258837 58.18543735 37.41258837 61.97827148 37.77026367 C64.24864264 36.90526899 65.74161727 35.84599769 67.6171875 34.3046875 C68.29910156 33.75683594 68.98101562 33.20898438 69.68359375 32.64453125 C70.40675781 32.06058594 71.12992187 31.47664063 71.875 30.875 C87.04272239 19.01471963 104.53265778 11.34113333 124 11 C124.73089844 10.97566895 125.46179688 10.95133789 126.21484375 10.92626953 C137.57560008 10.56045318 147.95857988 11.04795365 159 14 C160.010625 14.26683594 161.02125 14.53367187 162.0625 14.80859375 C176.47436467 19.12065432 189.45937104 27.31085369 200.5859375 37.328125 C202.7830709 39.24952579 202.7830709 39.24952579 204.94165039 38.74511719 C207.06104516 37.97790181 208.54519711 37.09354024 210.34765625 35.75 C210.95287109 35.3065625 211.55808594 34.863125 212.18164062 34.40625 C212.80232422 33.9421875 213.42300781 33.478125 214.0625 33 C220.62216625 28.12594458 220.62216625 28.12594458 224 27 C224.16894443 28.74978157 224.33506309 30.49983612 224.5 32.25 C224.5928125 33.22453125 224.685625 34.1990625 224.78125 35.203125 C225.42236601 43.4002511 221.95956778 47.69236179 217 54 C214.21822057 56.70857471 211.21469694 58.83410403 208 61 C206.87948228 61.80447426 205.76113095 62.61197137 204.64453125 63.421875 C203.47225403 64.26167421 202.29908023 65.10022333 201.125 65.9375 C200.56530518 66.3399292 200.00561035 66.7423584 199.42895508 67.15698242 C195.34687994 70 195.34687994 70 192 70 C189.48122382 67.68007457 187.19097651 65.20782737 184.875 62.6875 C172.32474954 50.95574414 156.31848786 42.56024154 138.9375 41.75 C135.01327448 41.44630425 133.34705383 40.76552186 130.625 37.9375 C127.61793022 35.03656209 125.35609012 34.37049774 121.1875 34.0625 C113.66260581 34.42037982 109.91581844 38.7368683 105 44 C101.33337151 47.34779123 97.70342432 49.74773068 93.375 52.125 C85.65501912 56.50608915 77.9656903 62.55146456 73 70 C68.30317437 68.65208141 64.74707922 66.72210712 60.71875 63.97265625 C60.14217651 63.58307236 59.56560303 63.19348846 58.97155762 62.792099 C57.14313899 61.55547235 55.32120584 60.30971933 53.5 59.0625 C51.67802291 57.8200672 49.85467592 56.57978119 48.02844238 55.34361267 C46.3706643 54.2207208 44.71742392 53.09113823 43.06445312 51.96118164 C40.12147922 50.07774399 37.15307829 48.49948358 34 47 C32.08881322 52.44688231 30.40093467 57.93313833 28.875 63.5 C28.54242188 64.7065625 28.20984375 65.913125 27.8671875 67.15625 C24.31542643 82.89919096 23.45154624 104.00556934 29.90234375 119.11328125 C30 121 30 121 27.9453125 123.5078125 C27.01460938 124.37148438 26.08390625 125.23515625 25.125 126.125 C21.60763913 129.21842731 21.60763913 129.21842731 19 133 C15.33089002 132.431775 13.75521765 131.05620402 11.25 128.375 C8.01496207 125.01461927 4.68382968 121.90260061 1.1484375 118.86328125 C-2.18661637 115.97087998 -5.43954862 112.98818183 -8.703125 110.015625 C-12.5649004 106.22393837 -12.5649004 106.22393837 -17.5 105.0625 C-20.45222223 106.16958334 -21.86799697 107.72096228 -24 110 C-24.66 110 -25.32 110 -26 110 C-31.59743 85.8659907 -25.51451355 58.94136783 -18 36 C-17.64180176 34.85748779 -17.64180176 34.85748779 -17.27636719 33.69189453 C-15.65327356 28.60641846 -13.67613207 23.87736458 -11.25 19.125 C-10.90582031 18.44244141 -10.56164062 17.75988281 -10.20703125 17.05664062 C-7.16565251 11.12428099 -3.74245855 5.52012636 0 0 Z " fill="#018993" transform="translate(387,316)"/>
<path d="M0 0 C0.66 0.825 1.32 1.65 2 2.5 C14.50683309 17.98811307 34.98001152 25.56428983 53 32 C53 49.82 53 67.64 53 86 C25.61538462 81.02097902 25.61538462 81.02097902 13 75 C12.37738281 74.70577148 11.75476563 74.41154297 11.11328125 74.10839844 C-1.15326586 68.27763644 -12.48783815 61.66189037 -23 53 C-23.5249707 52.57058105 -24.04994141 52.14116211 -24.59082031 51.69873047 C-38.10185049 40.59466247 -48.7113796 28.08939941 -59 14 C-58.67 13.34 -58.34 12.68 -58 12 C-57.21496094 12.80824219 -56.42992187 13.61648438 -55.62109375 14.44921875 C-47.08501741 23.99763275 -47.08501741 23.99763275 -36.0625 29.6875 C-26.73512073 27.59359853 -19.58354061 17.75392925 -13.125 11.125 C-11.07082305 9.01773047 -9.01014149 6.91713917 -6.9453125 4.8203125 C-6.04312988 3.89492676 -5.14094727 2.96954102 -4.21142578 2.01611328 C-2 0 -2 0 0 0 Z " fill="#008893" transform="translate(441,476)"/>
<path d="M0 0 C8.33913727 5.89841416 12.76127024 12.54050662 14.6875 22.515625 C16.19268021 34.48180764 14.77021655 44.92339862 8 55 C2.88006868 61.08856697 -3.08368912 65.05274912 -11 66 C-21.92180413 66.84947365 -29.76317559 66.23295199 -38.28125 59.0859375 C-46.73412483 50.66368903 -47.29018736 40.75559556 -47.5 29.375 C-47.48560584 21.56856676 -46.86163432 15.39759022 -42 9 C-41.59265625 8.41347656 -41.1853125 7.82695313 -40.765625 7.22265625 C-32.00360884 -4.41261846 -12.53661923 -7.11280674 0 0 Z " fill="#028896" transform="translate(452,654)"/>
<path d="M0 0 C5.29212736 0.35477949 7.84231791 3.21789128 11.4375 6.75 C12.53901385 7.80869882 13.64187052 8.86600237 14.74609375 9.921875 C15.22747803 10.39206055 15.7088623 10.86224609 16.20483398 11.34667969 C18.08467891 13.19554167 18.08467891 13.19554167 21.06565857 14.79650879 C23.29986345 16.67804048 23.93829886 17.71223283 24.55785656 20.60177994 C24.76971851 24.05006911 24.78723484 27.45447832 24.74462891 30.90917969 C24.75193024 32.22193878 24.75923157 33.53469788 24.76675415 34.88723755 C24.78554416 38.48286476 24.76674403 42.0774003 24.74008989 45.67294216 C24.71741268 49.44303431 24.72568009 53.21307455 24.72958374 56.98321533 C24.73134908 63.31841797 24.70920871 69.6531924 24.67236328 75.98828125 C24.63010119 83.29618261 24.62299276 90.60345519 24.6354872 97.91145396 C24.64691123 104.95573465 24.63553555 111.9997955 24.61314011 119.04404449 C24.60388898 122.03427476 24.60208265 125.02436967 24.6063118 128.01461029 C24.61080847 132.20115051 24.58174102 136.38682516 24.54931641 140.57324219 C24.55674866 142.42047379 24.55674866 142.42047379 24.56433105 144.30502319 C24.47547422 151.51328935 23.4200784 156.6722763 20 163 C19.44020361 164.29548437 18.89537763 165.59756099 18.3671875 166.90625 C17.87476563 168.0921875 17.38234375 169.278125 16.875 170.5 C16.37742187 171.7065625 15.87984375 172.913125 15.3671875 174.15625 C14 177 14 177 12 178 C9.75430743 173.71812553 8.01161547 169.44437595 6.4375 164.875 C4.96801532 160.39986323 4.96801532 160.39986323 2.94300938 156.17300606 C1.7143144 153.34168573 1.74045332 151.07468359 1.72825623 147.98971558 C1.7185379 146.75864075 1.70881958 145.52756592 1.69880676 144.25918579 C1.69803659 142.89788827 1.69744757 141.53659064 1.69702148 140.17529297 C1.689359 138.73953778 1.68081238 137.30378708 1.67144775 135.86804199 C1.65317876 132.77855817 1.64113417 129.68913478 1.63390923 126.59960556 C1.62242559 121.71755134 1.59697174 116.83563108 1.56959534 111.9536438 C1.52795469 104.23550057 1.49553378 96.51735093 1.46712118 88.79914868 C1.41612353 74.9674846 1.35406861 61.13587611 1.28178078 47.3043071 C1.25682444 42.44770237 1.23740855 37.59111543 1.22239864 32.73447013 C1.21221638 29.71884796 1.19807082 26.70325349 1.18292236 23.68765259 C1.17675139 22.28557104 1.17230078 20.88348074 1.16966438 19.48138809 C1.16586998 17.57301682 1.15550302 15.66466194 1.14476013 13.75631714 C1.13897776 12.15189412 1.13897776 12.15189412 1.13307858 10.51505852 C1.16803178 8.00328988 1.16803178 8.00328988 0 6 C-0.039992 4.00039988 -0.04346799 1.99952758 0 0 Z " fill="#D6762F" transform="translate(506,406)"/>
<path d="M0 0 C32 0 32 0 42 5 C47.92909776 11.17110175 48.45635057 15.03488513 48.421875 23.4296875 C47.81628202 28.55479844 45.77486936 31.58332992 42 35 C41.01 35.66 40.02 36.32 39 37 C40.66798667 41.42790277 42.74144801 45.59695026 44.875 49.8125 C46.9296875 53.89453125 46.9296875 53.89453125 47.95214844 55.92822266 C48.67807174 57.36349413 49.41097917 58.79524645 50.14941406 60.22412109 C50.51518555 60.93777832 50.88095703 61.65143555 51.2578125 62.38671875 C51.75885498 63.35484497 51.75885498 63.35484497 52.27001953 64.3425293 C53 66 53 66 53 68 C46.73 68 40.46 68 34 68 C29.76396544 59.77231749 25.89487758 51.81049698 23 43 C21.02 42.67 19.04 42.34 17 42 C17 50.25 17 58.5 17 67 C11.39 67 5.78 67 0 67 C0 44.89 0 22.78 0 0 Z " fill="#13BF8C" transform="translate(531,652)"/>
<path d="M0 0 C5.445 -0.0825 10.89 -0.165 16.5 -0.25 C18.20220703 -0.28641602 19.90441406 -0.32283203 21.65820312 -0.36035156 C29.26942792 -0.45562259 35.54040014 -0.51841576 42 4 C46.21682247 8.32779148 48.07852051 12.37291746 48.3125 18.375 C48.14825142 24.96684319 45.58180006 30.27935751 41 35 C38.87109375 35.6328125 38.87109375 35.6328125 37 36 C37.3707666 36.52859619 37.7415332 37.05719238 38.12353516 37.60180664 C42.05347035 43.3310418 45.3167468 49.20550066 48.375 55.4375 C48.82488281 56.33404297 49.27476562 57.23058594 49.73828125 58.15429688 C53 64.73226159 53 64.73226159 53 67 C46.07 67 39.14 67 32 67 C31.2575 64.89625 30.515 62.7925 29.75 60.625 C27.87011589 55.31964578 25.87442153 50.08359923 23.69921875 44.890625 C23 43 23 43 23 41 C20.69 41 18.38 41 16 41 C16 49.25 16 57.5 16 66 C10.72 66 5.44 66 0 66 C0 44.22 0 22.44 0 0 Z " fill="#16C38E" transform="translate(839,653)"/>
<path d="M0 0 C36.625 0 36.625 0 42.8125 5.5 C47.52575158 10.88657323 47.42434965 14.56201235 47.31640625 21.53515625 C46.88705217 26.2368484 45.98642908 28.36785652 43 32 C38.93548387 35 38.93548387 35 36 35 C36.54744873 35.79398193 36.54744873 35.79398193 37.10595703 36.60400391 C41.01978458 42.36522815 44.52688079 48.27014133 47.875 54.375 C48.37257812 55.26316406 48.87015625 56.15132812 49.3828125 57.06640625 C49.85203125 57.91847656 50.32125 58.77054688 50.8046875 59.6484375 C51.22733887 60.41333496 51.64999023 61.17823242 52.08544922 61.96630859 C53 64 53 64 53 67 C46.4 67 39.8 67 33 67 C32.484375 65.47375 31.96875 63.9475 31.4375 62.375 C29.6841617 57.61682399 27.76780649 52.96867474 25.625 48.375 C25.08101562 47.18648437 24.53703125 45.99796875 23.9765625 44.7734375 C23.32429688 43.85820313 22.67203125 42.94296875 22 42 C20.02 41.67 18.04 41.34 16 41 C16 49.25 16 57.5 16 66 C10.72 66 5.44 66 0 66 C0 44.22 0 22.44 0 0 Z " fill="#028A96" transform="translate(180,653)"/>
<path d="M0 0 C7.26 0 14.52 0 22 0 C26.01513121 13.00331834 30.02680536 26.00669071 33.90942383 39.05029297 C35.05907856 42.90256826 36.22799943 46.74663624 37.4453125 50.578125 C37.67581299 51.30435059 37.90631348 52.03057617 38.14379883 52.77880859 C38.76503718 54.72621732 39.39204673 56.6717824 40.01953125 58.6171875 C41 62 41 62 42 68 C35.73 68 29.46 68 23 68 C22.34 65.03 21.68 62.06 21 59 C20.67 58.67 20.34 58.34 20 58 C20 56.35 20 54.7 20 53 C13.4 53 6.8 53 0 53 C-0.309375 54.7325 -0.61875 56.465 -0.9375 58.25 C-1.52633977 61.54750269 -2.18663341 64.74653364 -3 68 C-8.94 68 -14.88 68 -21 68 C-19.62666897 61.36896536 -17.84206508 54.99997651 -15.75 48.5625 C-15.44280029 47.60601563 -15.13560059 46.64953125 -14.8190918 45.6640625 C-12.62482984 38.85580393 -10.35689979 32.07340961 -8.06835938 25.29638672 C-6.14397358 19.55060879 -4.45220229 13.76532156 -2.859375 7.91796875 C-2 5 -2 5 0 0 Z " fill="#14BF8C" transform="translate(609,652)"/>
<path d="M0 0 C5.61 0 11.22 0 17 0 C17.495 15.345 17.495 15.345 18 31 C21.27117691 24.48873669 21.27117691 24.48873669 24.45947266 17.93701172 C32.40997382 1.38823853 32.40997382 1.38823853 38.45849609 -0.95068359 C44.10390316 -1.82431482 49.43593293 -1.11046323 55 0 C53.38873338 4.83379986 50.65819188 8.6289313 47.75 12.75 C46.76035269 14.17703897 45.77076894 15.60412202 44.78125 17.03125 C43.17245102 19.33574584 41.54919446 21.62574501 39.90625 23.90625 C39.3596875 24.6796875 38.813125 25.453125 38.25 26.25 C37.78078125 26.89453125 37.3115625 27.5390625 36.828125 28.203125 C35.71646666 30.61521384 36.14573652 31.50118891 37 34 C37.99707076 35.66562285 39.0616278 37.29158262 40.16796875 38.88671875 C40.81443359 39.82580078 41.46089844 40.76488281 42.12695312 41.73242188 C42.80693359 42.70759766 43.48691406 43.68277344 44.1875 44.6875 C45.51473768 46.60778632 46.8415653 48.52835611 48.16796875 50.44921875 C48.81040527 51.37911621 49.4528418 52.30901367 50.11474609 53.26708984 C50.73687988 54.1689502 51.35901367 55.07081055 52 56 C52.60279785 56.87221191 53.2055957 57.74442383 53.82666016 58.64306641 C54.37499512 59.4479248 54.92333008 60.2527832 55.48828125 61.08203125 C55.97466064 61.79206299 56.46104004 62.50209473 56.9621582 63.23364258 C58 65 58 65 58 67 C51.07 67 44.14 67 37 67 C36.21496094 65.61167969 35.42992187 64.22335937 34.62109375 62.79296875 C33.56004426 60.92439487 32.49883789 59.05591008 31.4375 57.1875 C30.92380859 56.27806641 30.41011719 55.36863281 29.88085938 54.43164062 C29.10258789 53.06362305 29.10258789 53.06362305 28.30859375 51.66796875 C27.84251709 50.84578857 27.37644043 50.0236084 26.89624023 49.17651367 C24.03664991 44.38623046 20.99517203 39.7066989 18 35 C17.67 45.23 17.34 55.46 17 66 C11.39 66 5.78 66 0 66 C0 44.22 0 22.44 0 0 Z " fill="#15C48E" transform="translate(720,653)"/>
<path d="M0 0 C33.05405405 0 33.05405405 0 42.4375 6.3125 C46.9615383 11.05722309 48.16336205 15.04389552 48.4375 21.4375 C48.21630734 28.44834576 46.11607916 32.83582813 41.25 37.8125 C33.0532208 43.32956292 26.71961856 43.30373808 17 43 C17 51.25 17 59.5 17 68 C11.39 68 5.78 68 0 68 C0 45.56 0 23.12 0 0 Z " fill="#018793" transform="translate(298,652)"/>
<path d="M0 0 C0 5.28 0 10.56 0 16 C-3.21158074 15.19710481 -5.26640669 14.40898992 -8.125 12.9375 C-13.12507779 10.6887006 -17.57920709 10.09653452 -23 11 C-28.05814279 13.39112205 -29.9291994 15.88808081 -32 21 C-32.43409051 23.80386676 -32.47666688 26.54151106 -32.4375 29.375 C-32.43065186 30.12869873 -32.42380371 30.88239746 -32.41674805 31.65893555 C-32.21568131 38.60289202 -30.88079282 43.04493259 -25.87890625 48.17578125 C-22.12009357 50.55755265 -18.926895 50.51789511 -14.625 50.375 C-13.89539063 50.37371094 -13.16578125 50.37242187 -12.4140625 50.37109375 C-7.61359032 50.2939433 -3.55706613 49.50299015 1 48 C1 52.29 1 56.58 1 61 C-9.85014634 65.89320325 -22.79444076 67.18304318 -34.25 63.3125 C-38.37871079 61.53503387 -41.14010131 59.53281603 -44 56 C-44.86625 55.0925 -45.7325 54.185 -46.625 53.25 C-51.83527216 46.82264083 -52.48553758 38.98326988 -52.375 31 C-52.38660156 30.16210938 -52.39820313 29.32421875 -52.41015625 28.4609375 C-52.36962698 19.73363368 -50.16739434 11.41822138 -44 5 C-31.15705746 -6.22043556 -15.28122785 -6.51999055 0 0 Z " fill="#15C48D" transform="translate(707,655)"/>
<path d="M0 0 C0.90427734 -0.020625 1.80855469 -0.04125 2.74023438 -0.0625 C9.35397656 -0.10031983 14.682085 1.09881656 20.9375 3.25 C20.9375 8.53 20.9375 13.81 20.9375 19.25 C15.9375 18.25 15.9375 18.25 13.5 16.1875 C8.62863268 12.70613016 1.58177176 13.35219771 -4.0625 14.25 C-8.3320861 16.8251131 -10.34404191 19.59584268 -12.0625 24.25 C-12.51269452 27.19977139 -12.58675667 30.08172845 -12.5625 33.0625 C-12.55750488 33.85986572 -12.55250977 34.65723145 -12.54736328 35.47875977 C-12.36380689 41.67093975 -11.41897517 46.57985862 -7.0625 51.25 C-1.89724996 55.40739638 4.60848731 54.78031562 10.9375 54.25 C14.30571272 53.35202887 14.30571272 53.35202887 16.9375 52.25 C18.2575 52.25 19.5775 52.25 20.9375 52.25 C20.9375 56.54 20.9375 60.83 20.9375 65.25 C10.21321549 68.98018592 -3.98777386 71.12718012 -14.75 66.3125 C-22.73462724 61.3849241 -28.06899294 54.25948499 -30.61401367 45.31079102 C-32.82880494 35.13384322 -32.20175548 22.34743982 -27.0625 13.25 C-20.46547009 3.06168754 -11.58594305 0.06414363 0 0 Z " fill="#028995" transform="translate(146.0625,651.75)"/>
<path d="M0 0 C12.87 0 25.74 0 39 0 C39 3.96 39 7.92 39 12 C31.74 12 24.48 12 17 12 C17 16.62 17 21.24 17 26 C23.27 26 29.54 26 36 26 C36 29.96 36 33.92 36 38 C29.73 38 23.46 38 17 38 C17 43.28 17 48.56 17 54 C24.26 54 31.52 54 39 54 C39 57.96 39 61.92 39 66 C26.13 66 13.26 66 0 66 C0 44.22 0 22.44 0 0 Z " fill="#15C48F" transform="translate(785,653)"/>
<path d="M0 0 C5.94 0 11.88 0 18 0 C28.50986842 20.11889098 28.50986842 20.11889098 28 28 C28.66 28 29.32 28 30 28 C30.10570312 27.12988281 30.21140625 26.25976562 30.3203125 25.36328125 C31.03185805 21.84235759 32.17828357 19.34035366 33.875 16.1875 C36.46604639 11.19849001 38.38636194 6.37879355 40 1 C45.94 1 51.88 1 58 1 C56.35753517 5.92739448 54.47047426 9.93793224 51.90234375 14.36328125 C41.88569457 32.16483731 34.94960639 46.01248054 37 67 C31.72 67 26.44 67 21 67 C21.09023437 65.60394531 21.18046875 64.20789063 21.2734375 62.76953125 C21.87189371 42.41675496 13.93513442 28.11146152 4.20458984 10.80712891 C3.65625488 9.82534668 3.10791992 8.84356445 2.54296875 7.83203125 C2.05207764 6.96940674 1.56118652 6.10678223 1.05541992 5.21801758 C0 3 0 3 0 0 Z " fill="#038B97" transform="translate(233,652)"/>
<path d="M0 0 C16.17 0 32.34 0 49 0 C49 3.63 49 7.26 49 11 C43.72 11 38.44 11 33 11 C33 29.15 33 47.3 33 66 C27.39 66 21.78 66 16 66 C16 47.85 16 29.7 16 11 C10.72 11 5.44 11 0 11 C0 7.37 0 3.74 0 0 Z " fill="#018996" transform="translate(350,653)"/>
<path d="M0 0 C16.5 0 33 0 50 0 C50 3.63 50 7.26 50 11 C44.39 11 38.78 11 33 11 C33 29.15 33 47.3 33 66 C27.72 66 22.44 66 17 66 C17 47.85 17 29.7 17 11 C11.39 11 5.78 11 0 11 C0 7.37 0 3.74 0 0 Z " fill="#018D98" transform="translate(472,653)"/>
<path d="M0 0 C1.47823242 -0.0309375 1.47823242 -0.0309375 2.98632812 -0.0625 C9.47321487 -0.09735231 14.08777 0.39071027 19.05078125 4.96875 C19.52902344 5.5565625 20.00726562 6.144375 20.5 6.75 C21.23669922 7.63171875 21.23669922 7.63171875 21.98828125 8.53125 C24.89015542 12.69028789 24.63733187 17.39348187 24.1875 22.25 C22.16326963 28.09777661 18.5510759 31.24225367 13.30810547 34.37182617 C9.19535071 36.07497824 4.70195372 35.57680722 0.3125 35.5625 C-0.66847656 35.57861328 -1.64945313 35.59472656 -2.66015625 35.61132812 C-8.90814715 35.61554404 -13.59919393 35.17473247 -18.421875 30.78515625 C-23.07978732 24.7713448 -24.63177946 20.82172792 -23.8125 13.25 C-21.998534 7.80810201 -18.42987362 4.4716675 -13.8125 1.25 C-9.26701791 -0.2651607 -4.76154489 0.02462337 0 0 Z " fill="#7C7C7C" transform="translate(967.8125,956.75)"/>
<path d="M0 0 C1.65 0 3.3 0 5 0 C5.33 0.99 5.66 1.98 6 3 C7.05574219 2.27490234 7.05574219 2.27490234 8.1328125 1.53515625 C12.93187838 -1.03437085 17.70128972 -0.88311838 23 0 C27.07524365 2.23435773 29.45018487 5.1752773 32 9 C32.68044922 14.41194493 32.91950965 20.11130831 30.375 25.0625 C27.62661681 28.46181605 26.18062099 29.70780806 22 31 C15.34338457 31.69502896 11.89238443 31.53543066 6 28 C5.67 32.95 5.34 37.9 5 43 C3.35 42.67 1.7 42.34 0 42 C0 28.14 0 14.28 0 0 Z " fill="#E1E1E1" transform="translate(712,753)"/>
<path d="M0 0 C5.00679051 2.45616138 7.0266301 4.84322823 9 10 C9.48002217 13.79811544 9.50975674 17.55035842 9.5 21.375 C9.52835937 22.37789062 9.55671875 23.38078125 9.5859375 24.4140625 C9.60321105 31.01255807 8.68243594 36.09466515 4 41 C0.77851173 42.96732731 -2.15505077 43.61374616 -5.97265625 43.5 C-9.27331867 42.6859638 -10.77759117 40.78980111 -12.74609375 38.11328125 C-18.06382813 29.15099372 -18.25763396 18.98202961 -15.76953125 9.01171875 C-12.92104572 1.56517028 -7.73840257 -1.02314075 0 0 Z " fill="#010505" transform="translate(439,664)"/>
<path d="M0 0 C3.320625 -0.061875 6.64125 -0.12375 10.0625 -0.1875 C11.09511963 -0.21481201 12.12773926 -0.24212402 13.19165039 -0.27026367 C20.53602631 -0.3361484 25.3076772 0.59409452 30.9375 5.625 C33.60094804 9.98336951 33.9104697 13.02276564 33 18 C31.68530675 22.16455625 29.49230791 25.07249986 25.8125 27.4375 C19.19864871 30.40930698 11.07398352 29.28939023 4 29 C4 32.96 4 36.92 4 41 C2.68 41 1.36 41 0 41 C0 27.47 0 13.94 0 0 Z " fill="#E4E5E5" transform="translate(273,743)"/>
<path d="M0 0 C3.88446678 2.58964452 6.69907021 5.64814041 8.8125 9.875 C9.63729061 16.21410499 9.08230991 21.01963638 5.28125 26.24609375 C1.57229423 30.35948353 -2.29642611 31.09489675 -7.625 31.4375 C-12.70938797 31.31281474 -15.27374674 30.0194256 -18.84765625 26.48046875 C-22.83312847 21.70487376 -22.60989161 18.07146768 -22.49609375 12.046875 C-22.09223768 7.89584802 -21.1401119 5.8276119 -18.1875 2.875 C-12.45607741 -1.724648 -7.01275198 -2.47508894 0 0 Z " fill="#070708" transform="translate(469.1875,753.125)"/>
<path d="M0 0 C4.64990438 2.16461066 6.71605707 4.48387489 9 9 C9.83248306 14.57238659 9.74625519 19.48083765 7.25 24.5625 C2.82403052 29.35730027 -0.70255929 31.13573248 -7.25 31.4375 C-12.43695029 31.40314934 -14.97333353 30.27276265 -18.66015625 26.703125 C-22.3093394 22.06451319 -22.59120096 17.85540959 -22.52734375 12.05859375 C-21.66804618 7.07466787 -18.81367734 4.14930368 -15 1 C-10.58299518 -1.20850241 -4.80779035 -0.42112032 0 0 Z " fill="#050605" transform="translate(357,753)"/>
<path d="M0 0 C4.64953206 2.16443734 6.7238156 4.47969014 9 9 C9.83971735 14.1424551 10.23944335 19.60534731 7.79296875 24.33203125 C4.61409441 28.15472824 1.44638309 30.68219193 -3.5859375 31.3359375 C-8.05313077 31.39850323 -11.29887197 31.30594678 -15.4375 29.5 C-19.9078533 25.13867971 -22.18194289 20.66192893 -22.5 14.375 C-22.22287495 8.822943 -19.71199139 5.63146217 -15.7578125 1.86328125 C-10.9126151 -1.41031529 -5.62965253 -0.70105107 0 0 Z " fill="#070808" transform="translate(394,753)"/>
<path d="M0 0 C4.04536704 1.48279431 6.7661888 4.35536067 9 8 C10.78816966 13.36450899 10.68834152 18.10384524 8.4375 23.25 C6.17030463 27.24908072 3.43237515 29.67763393 -1 31 C-5.66251053 31.78280736 -9.9525259 32.1314028 -14.19140625 29.7890625 C-18.19101674 26.499195 -20.70642499 23.45100993 -21.3359375 18.1953125 C-21.41514399 11.96968252 -21.43109653 7.80035457 -17 3 C-12.1528084 -1.52114732 -6.24705997 -0.70706773 0 0 Z " fill="#070707" transform="translate(585,753)"/>
<path d="M0 0 C3.54500022 1.95876283 6.18254853 4.36509707 8 8 C8 10.97 8 13.94 8 17 C-0.25 17 -8.5 17 -17 17 C-14.16666667 24.66666667 -14.16666667 24.66666667 -11 26 C-5.32045232 26.43924559 -0.31340565 26.23722343 5 24 C5.33 25.32 5.66 26.64 6 28 C0.26881415 31.99478567 -5.2222854 32.00997964 -12 31 C-16.44222617 28.93753785 -18.99432899 25.61712505 -21.0625 21.25 C-22.59940076 16.30725125 -21.6935311 11.79971497 -20 7 C-15.23421276 -0.62525958 -8.47513655 -1.30556934 0 0 Z " fill="#E5E5E5" transform="translate(695,753)"/>
<path d="M0 0 C16.33520362 -0.82859729 16.33520362 -0.82859729 20.56640625 1.27734375 C22.87505456 3.73063027 23.82870498 5.73907834 24.28125 9.0703125 C24.10084504 13.02418785 23.14788487 14.81708976 20.625 17.9375 C16.32218643 21.31828209 12.54002551 21.12546881 7.3125 21.0625 C3.6928125 21.0315625 3.6928125 21.0315625 0 21 C0 14.07 0 7.14 0 0 Z " fill="#080909" transform="translate(278,747)"/>
<path d="M0 0 C3.12578143 1.6720747 5.39281175 3.7856235 7 7 C7.35017306 12.3401391 7.46830225 15.66462219 4 20 C0.18817216 23.40666609 -2.62684872 23.50225276 -7.5859375 23.36328125 C-10.96846396 22.85426028 -12.72322234 21.49711098 -15 19 C-16.96752105 15.0649579 -16.46422595 10.2894478 -16 6 C-12.06421757 -0.55963739 -7.21257786 -1.01616717 0 0 Z " fill="#060707" transform="translate(733,757)"/>
<path d="M0 0 C4.64990438 2.16461066 6.71605707 4.48387489 9 9 C9.83248306 14.57238659 9.74625519 19.48083765 7.25 24.5625 C2.82403052 29.35730027 -0.70255929 31.13573248 -7.25 31.4375 C-12.43695029 31.40314934 -14.97333353 30.27276265 -18.66015625 26.703125 C-22.3093394 22.06451319 -22.59120096 17.85540959 -22.52734375 12.05859375 C-21.66804618 7.07466787 -18.81367734 4.14930368 -15 1 C-10.58299518 -1.20850241 -4.80779035 -0.42112032 0 0 Z M-17 9 C-18.60632723 12.21265446 -18.47931944 15.51521812 -18 19 C-15.98497111 22.75212276 -14.54533858 24.63644095 -11 27 C-7.22311096 27.68343706 -3.52813111 27.85107095 -0.11328125 25.94921875 C2.69071562 23.64763294 4.72322639 21.72020053 5.30859375 18.08203125 C5.55961961 13.66245477 5.26912833 10.58714192 2.625 6.9375 C-0.08653091 4.18099109 -2.15645038 3.46482075 -6 3.25 C-11.17507124 3.60905472 -13.51700721 5.24908468 -17 9 Z " fill="#EAEAEA" transform="translate(357,753)"/>
<path d="M0 0 C-0.33 1.32 -0.66 2.64 -1 4 C-6.75 2.125 -6.75 2.125 -9 1 C-14.50638223 0.49717168 -19.40239776 0.28678471 -24.5 2.5625 C-28.75703233 6.71310652 -30.74423721 9.98586805 -31.5 15.9375 C-31.15317766 21.89128358 -28.66029202 26.33970798 -24.5 30.5 C-18.76936545 32.95598624 -12.14397522 33.20714235 -6.2734375 30.953125 C-5.14808594 30.48132813 -5.14808594 30.48132813 -4 30 C-1.6875 30.375 -1.6875 30.375 0 31 C-1 34 -1 34 -3.6875 35.6875 C-10.04002545 38.14188483 -18.16239049 38.43247175 -24.54296875 36.05078125 C-29.79606646 32.92651864 -33.6164484 28.64952444 -36 23 C-36.78125281 16.46588563 -36.55442607 9.69955338 -33 4 C-24.03199882 -5.94230255 -11.52679266 -6.45500389 0 0 Z " fill="#E7E7E7" transform="translate(558,747)"/>
<path d="M0 0 C3.88446678 2.58964452 6.69907021 5.64814041 8.8125 9.875 C9.63729061 16.21410499 9.08230991 21.01963638 5.28125 26.24609375 C1.57229423 30.35948353 -2.29642611 31.09489675 -7.625 31.4375 C-12.70938797 31.31281474 -15.27374674 30.0194256 -18.84765625 26.48046875 C-22.83312847 21.70487376 -22.60989161 18.07146768 -22.49609375 12.046875 C-22.09223768 7.89584802 -21.1401119 5.8276119 -18.1875 2.875 C-12.45607741 -1.724648 -7.01275198 -2.47508894 0 0 Z M-16.1875 6.875 C-18.88371247 10.9193187 -18.73069098 14.12834654 -18.1875 18.875 C-16.59557162 22.53643529 -14.76306139 25.03890091 -11.1875 26.875 C-6.93386551 27.28010805 -4.32024917 27.32809967 -0.375 25.75 C3.41839251 22.4985207 4.61454103 19.2607128 5.3125 14.375 C4.63647055 9.64279385 3.21406536 8.19925705 -0.1875 4.875 C-5.94734719 0.78736651 -11.06023003 2.79648979 -16.1875 6.875 Z " fill="#EAE9EA" transform="translate(469.1875,753.125)"/>
<path d="M0 0 C4.64953206 2.16443734 6.7238156 4.47969014 9 9 C9.83971735 14.1424551 10.23944335 19.60534731 7.79296875 24.33203125 C4.61409441 28.15472824 1.44638309 30.68219193 -3.5859375 31.3359375 C-8.05313077 31.39850323 -11.29887197 31.30594678 -15.4375 29.5 C-19.9078533 25.13867971 -22.18194289 20.66192893 -22.5 14.375 C-22.22287495 8.822943 -19.71199139 5.63146217 -15.7578125 1.86328125 C-10.9126151 -1.41031529 -5.62965253 -0.70105107 0 0 Z M-16 8 C-18.34056104 11.80439018 -18.14051824 14.49569797 -17.55078125 18.80859375 C-16.76713199 21.92651739 -15.28384549 23.78536195 -13 26 C-9.51302098 27.74348951 -5.80409937 27.58082725 -2 27 C1.57623788 25.0862694 3.69762236 22.90713292 5 19 C5.57698116 14.0544472 5.59136881 11.12051485 2.5625 7.0625 C-0.56257435 3.84877106 -3.36692804 2.83273298 -7.81640625 2.66015625 C-11.7347841 3.26999323 -13.35053303 5.09204845 -16 8 Z " fill="#EBEAEB" transform="translate(394,753)"/>
<path d="M0 0 C4.04536704 1.48279431 6.7661888 4.35536067 9 8 C10.78816966 13.36450899 10.68834152 18.10384524 8.4375 23.25 C6.17030463 27.24908072 3.43237515 29.67763393 -1 31 C-5.66251053 31.78280736 -9.9525259 32.1314028 -14.19140625 29.7890625 C-18.19101674 26.499195 -20.70642499 23.45100993 -21.3359375 18.1953125 C-21.41514399 11.96968252 -21.43109653 7.80035457 -17 3 C-12.1528084 -1.52114732 -6.24705997 -0.70706773 0 0 Z M-16 8 C-17.72304876 11.44609752 -17.37297068 15.22448982 -17 19 C-15.51710394 22.24824852 -13.73959119 24.71593802 -11 27 C-6.78860974 27.80442286 -2.98795935 27.42040824 0.9375 25.75 C3.76100458 23.35429915 4.82245152 21.26967806 5.3359375 17.59765625 C5.40130442 13.35534289 5.4269368 10.73189166 3.25 7 C-0.0920475 4.02929111 -1.89906607 3.14271366 -6.375 2.5625 C-11.1853299 3.14305706 -12.61392593 4.61392593 -16 8 Z " fill="#EAEAEA" transform="translate(585,753)"/>
<path d="M0 0 C1.65 0 3.3 0 5 0 C5.33 0.99 5.66 1.98 6 3 C6.82177734 2.26910156 6.82177734 2.26910156 7.66015625 1.5234375 C11.75926519 -1.14543143 16.27506656 -0.51953206 21 0 C24.81464301 1.58943459 26.835106 3.51462308 29 7 C29.34057617 9.65722656 29.34057617 9.65722656 29.29296875 12.640625 C29.28330078 13.71054687 29.27363281 14.78046875 29.26367188 15.8828125 C29.23853516 16.99398437 29.21339844 18.10515625 29.1875 19.25 C29.16719727 20.93996094 29.16719727 20.93996094 29.14648438 22.6640625 C29.11115645 25.44319264 29.0618252 28.22135363 29 31 C27.68 31 26.36 31 25 31 C24.9906543 30.35450195 24.98130859 29.70900391 24.97167969 29.04394531 C24.91790899 26.11186056 24.8342766 23.18135992 24.75 20.25 C24.73582031 19.23421875 24.72164062 18.2184375 24.70703125 17.171875 C24.62498548 11.3808512 24.62498548 11.3808512 22.078125 6.359375 C18.49249408 4.0138871 16.3215692 3.57631675 12 4 C9.30009338 5.79993774 7.4581135 7.083773 6 10 C5.84824451 11.59262066 5.75099675 13.19064856 5.68359375 14.7890625 C5.64169922 15.73007812 5.59980469 16.67109375 5.55664062 17.640625 C5.49766602 19.11789062 5.49766602 19.11789062 5.4375 20.625 C5.39431641 21.61757813 5.35113281 22.61015625 5.30664062 23.6328125 C5.20038931 26.08839838 5.09835036 28.54408703 5 31 C3.35 31 1.7 31 0 31 C0 20.77 0 10.54 0 0 Z " fill="#ECECEC" transform="translate(603,753)"/>
<path d="M0 0 C3.625 1.25 3.625 1.25 6 3 C6.875 5.1875 6.875 5.1875 7 7 C3 7 3 7 0 5 C-4.6531944 4.33192868 -8.69547452 4.04546916 -12.5625 6.875 C-15.23228123 10.82163312 -15.66244152 14.30189504 -15 19 C-13.50251293 21.65683189 -12.15347249 23.84652751 -10 26 C-8.39836084 26.09919077 -6.79220082 26.12969898 -5.1875 26.125 C-4.31480469 26.12757813 -3.44210937 26.13015625 -2.54296875 26.1328125 C-0.21345785 26.01114834 1.76938015 25.65514709 4 25 C4 24.34 4 23.68 4 23 C4.99 23.33 5.98 23.66 7 24 C6.875 25.8125 6.875 25.8125 6 28 C1.55789339 31.27313118 -2.94602274 31.6235989 -8.3046875 31.4921875 C-12.66816148 30.69537921 -15.21639826 28.33545281 -18 25 C-21.27820338 20.08269492 -20.91061857 14.72677899 -20 9 C-15.02149143 0.35585326 -9.44200968 -0.74472189 0 0 Z " fill="#E6E6E7" transform="translate(661,753)"/>
<path d="M0 0 C0 0.33 0 0.66 0 1 C-4.56760337 1.73819853 -8.87739001 2.08640393 -13.5 2 C-29.67647518 1.88788582 -45.86092936 2.98183044 -62 4 C-62.33 4.66 -62.66 5.32 -63 6 C-62.3208252 5.98912354 -61.64165039 5.97824707 -60.94189453 5.96704102 C-52.92634776 5.89701003 -44.96721876 6.27285641 -36.97216797 6.79956055 C-34.87102162 6.93776167 -32.76955917 7.06991413 -30.66796875 7.20117188 C-23.42948848 7.6608847 -16.20935058 8.19740074 -9 9 C-9 9.33 -9 9.66 -9 10 C-19.01176054 10.23283164 -28.89308107 9.95129443 -38.875 9.125 C-41.17753856 8.94115453 -43.48011149 8.75773914 -45.78271484 8.57470703 C-46.96822937 8.47965881 -48.1537439 8.3846106 -49.37518311 8.28668213 C-55.36571878 7.81289833 -61.35859076 7.37140573 -67.3515625 6.9296875 C-68.52866791 6.84260529 -69.70577332 6.75552307 -70.91854858 6.665802 C-74.4873388 6.40183561 -78.05616836 6.13840568 -81.625 5.875 C-84.10807552 5.69144149 -86.59114845 5.50784788 -89.07421875 5.32421875 C-95.0494495 4.88241035 -101.02471142 4.44102556 -107 4 C-107 3.67 -107 3.34 -107 3 C-97.47885931 2.60152852 -87.95746183 2.21001755 -78.43570518 1.82654572 C-74.01070872 1.64813585 -69.58582133 1.46764081 -65.16113281 1.28173828 C-43.4264884 0.37027354 -21.75583425 -0.24506536 0 0 Z " fill="#68473A" transform="translate(257,546)"/>
<path d="M0 0 C2.4375 1 2.4375 1 4 2 C3.67 2.99 3.34 3.98 3 5 C2.37351562 4.97679687 1.74703125 4.95359375 1.1015625 4.9296875 C0.28429687 4.91164063 -0.53296875 4.89359375 -1.375 4.875 C-2.59316406 4.84019531 -2.59316406 4.84019531 -3.8359375 4.8046875 C-6.21342243 4.78629949 -6.21342243 4.78629949 -8 7 C-8.39764263 8.98821313 -8.73775349 10.98944339 -9 13 C-5.7 13 -2.4 13 1 13 C1 14.32 1 15.64 1 17 C-2.3 17 -5.6 17 -9 17 C-9 25.91 -9 34.82 -9 44 C-10.32 44 -11.64 44 -13 44 C-13 35.09 -13 26.18 -13 17 C-14.98 17 -16.96 17 -19 17 C-19 15.68 -19 14.36 -19 13 C-17.02 13 -15.04 13 -13 13 C-13.0825 11.948125 -13.165 10.89625 -13.25 9.8125 C-12.96269651 5.43112175 -12.05154419 4.05154419 -9 1 C-5.97562661 -0.5121867 -3.33758466 -0.17263369 0 0 Z " fill="#E3E3E3" transform="translate(426,740)"/>
<path d="M0 0 C0.33 1.32 0.66 2.64 1 4 C-2 5 -2 5 -5 4.375 C-7.924671 3.6901669 -7.924671 3.6901669 -9.8125 5.125 C-11.247692 7.39109264 -11.64301497 9.35831079 -12 12 C-8.7 12 -5.4 12 -2 12 C-2 13.32 -2 14.64 -2 16 C-5.3 16 -8.6 16 -12 16 C-12 24.91 -12 33.82 -12 43 C-13.32 43 -14.64 43 -16 43 C-16 34.09 -16 25.18 -16 16 C-17.65 16 -19.3 16 -21 16 C-21.33 14.68 -21.66 13.36 -22 12 C-20.02 12 -18.04 12 -16 12 C-16.103125 11.13375 -16.20625 10.2675 -16.3125 9.375 C-15.9860406 5.84923846 -15.22631604 3.7846086 -12.84375 1.125 C-9.00574616 -1.21683285 -4.3204092 -0.40858511 0 0 Z " fill="#EAEAEA" transform="translate(503,741)"/>
<path d="M0 0 C1.32 0 2.64 0 4 0 C4 1.98 4 3.96 4 6 C6.97 6 9.94 6 13 6 C13 7.32 13 8.64 13 10 C10.03 10 7.06 10 4 10 C4.13818532 13.47951523 4.28682601 16.95850495 4.4375 20.4375 C4.47681641 21.43072266 4.51613281 22.42394531 4.55664062 23.44726562 C4.61948242 24.86362305 4.61948242 24.86362305 4.68359375 26.30859375 C4.72025146 27.18314209 4.75690918 28.05769043 4.79467773 28.95874023 C4.78181066 30.9927402 4.78181066 30.9927402 6 32 C7.51928038 32.07179964 9.04167482 32.08392007 10.5625 32.0625 C11.38878906 32.05347656 12.21507812 32.04445313 13.06640625 32.03515625 C13.70449219 32.02355469 14.34257813 32.01195312 15 32 C15 33.32 15 34.64 15 36 C11.3844609 37.2051797 7.72477776 37.95800426 4 37 C1.27667219 34.78996958 0.13068469 33.0288246 -0.31420898 29.52636719 C-0.39411904 26.56995036 -0.34833662 23.64327182 -0.25 20.6875 C-0.23195313 19.66076172 -0.21390625 18.63402344 -0.1953125 17.57617188 C-0.14831063 15.04982115 -0.08262272 12.52539531 0 10 C-1.98 10 -3.96 10 -6 10 C-5.67 8.68 -5.34 7.36 -5 6 C-3.35 6 -1.7 6 0 6 C0 4.02 0 2.04 0 0 Z " fill="#F0F0F0" transform="translate(754,747)"/>
<path d="M0 0 C8.02217295 -0.4789357 8.02217295 -0.4789357 12.0625 1.5 C14.42251904 4.54518586 14.66551491 6.32366643 14.43359375 10.09765625 C13.77657726 12.98024213 12.33462725 14.28336232 10 16 C8 17 8 17 0 17 C0 11.39 0 5.78 0 0 Z " fill="#030C09" transform="translate(855,665)"/>
<path d="M0 0 C2.97 0 5.94 0 9 0 C12.53049819 3.53049819 12.68042838 5.03251025 13.07421875 9.7734375 C12.97071996 12.87840115 11.98282963 14.64997969 10 17 C8 18 8 18 0 18 C0 12.06 0 6.12 0 0 Z " fill="#020506" transform="translate(315,665)"/>
<path d="M0 0 C1.32 0 2.64 0 4 0 C4.33 1.32 4.66 2.64 5 4 C5.680625 3.34 6.36125 2.68 7.0625 2 C10.64457375 -0.43885872 12.75519536 -0.33292585 17 0 C16.67 1.32 16.34 2.64 16 4 C14.3603125 4.37125 14.3603125 4.37125 12.6875 4.75 C8.7629448 6.08035769 8.00462723 6.56005816 6 10 C5.50241248 12.40554294 5.50241248 12.40554294 5.48828125 14.984375 C5.45283203 15.91894531 5.41738281 16.85351562 5.38085938 17.81640625 C5.35830078 18.78449219 5.33574219 19.75257813 5.3125 20.75 C5.27833984 21.73355469 5.24417969 22.71710937 5.20898438 23.73046875 C5.12664727 26.15353199 5.05745162 28.57623998 5 31 C3.35 31 1.7 31 0 31 C0 20.77 0 10.54 0 0 Z " fill="#DBDBDB" transform="translate(314,753)"/>
<path d="M0 0 C8.03149606 -0.35433071 8.03149606 -0.35433071 11.5625 0.9375 C13.59757419 3.85738905 13.61872378 6.26322008 13.44140625 9.76953125 C13 12 13 12 11 15.0625 C8 17 8 17 0 17 C0 11.39 0 5.78 0 0 Z " fill="#020806" transform="translate(548,665)"/>
<path d="M0 0 C7.51953125 -0.390625 7.51953125 -0.390625 10 0 C12.55629582 2.56185299 12.97216135 3.78126777 13.4375 7.4375 C12.93235165 11.55085087 11.89538484 13.10461516 9 16 C7 17 7 17 0 17 C0 11.39 0 5.78 0 0 Z " fill="#010606" transform="translate(197,665)"/>
<path d="M0 0 C0.66 0.33 1.32 0.66 2 1 C2.68603516 3.17724609 2.68603516 3.17724609 3.2890625 6.0234375 C3.61777344 7.55484375 3.61777344 7.55484375 3.953125 9.1171875 C4.17484375 10.19226563 4.3965625 11.26734375 4.625 12.375 C4.85445312 13.44234375 5.08390625 14.5096875 5.3203125 15.609375 C7 23.54789807 7 23.54789807 7 27 C3.04 27 -0.92 27 -5 27 C-4.39828638 20.67250629 -3.37848091 14.62404348 -1.9375 8.4375 C-1.75123047 7.61958984 -1.56496094 6.80167969 -1.37304688 5.95898438 C-0.91979313 3.97164104 -0.46053788 1.98566799 0 0 Z " fill="#020E0B" transform="translate(618,665)"/>
<path d="M0 0 C3.3125 1.625 3.3125 1.625 6 4 C6.33 5.98 6.66 7.96 7 10 C0.07 10 -6.86 10 -14 10 C-12.90260429 4.51302144 -12.35725308 3.97568503 -8 1 C-5.13391871 -0.43304064 -3.18699217 -0.30644155 0 0 Z " fill="#0C0C0C" transform="translate(692,756)"/>
<path d="M0 0 C0 0.66 0 1.32 0 2 C1.32 2 2.64 2 4 2 C3.67 2.99 3.34 3.98 3 5 C-1.29 5 -5.58 5 -10 5 C-12.2981424 8.8509288 -12.2981424 8.8509288 -12 13 C-12.804375 13.12375 -13.60875 13.2475 -14.4375 13.375 C-15.283125 13.58125 -16.12875 13.7875 -17 14 C-18.23887548 16.47775095 -18.16741669 18.23653707 -18.1875 21 C-18.20167969 21.886875 -18.21585938 22.77375 -18.23046875 23.6875 C-18.22713126 26.19519984 -18.22713126 26.19519984 -16 28 C-16.375 30.625 -16.375 30.625 -17 33 C-19.99547815 30.26499822 -20.88057592 28.24712859 -21.2734375 24.14453125 C-21.50079642 16.68540988 -21.13420657 11.61952958 -16 6 C-10.43765554 0.55701916 -7.92984547 -1.32164091 0 0 Z " fill="#F0C33D" transform="translate(645,324)"/>
<path d="M0 0 C1.32 0 2.64 0 4 0 C4 1.98 4 3.96 4 6 C4.99 6 5.98 6 7 6 C6.84152588 6.55719727 6.68305176 7.11439453 6.51977539 7.68847656 C5.96429853 10.15877011 5.791532 12.45553604 5.68359375 14.984375 C5.64169922 15.91894531 5.59980469 16.85351562 5.55664062 17.81640625 C5.49766602 19.26853516 5.49766602 19.26853516 5.4375 20.75 C5.39431641 21.73355469 5.35113281 22.71710937 5.30664062 23.73046875 C5.20077948 26.15351275 5.09869829 28.5766554 5 31 C3.35 31 1.7 31 0 31 C0 20.77 0 10.54 0 0 Z " fill="#D9D9DA" transform="translate(603,753)"/>
<path d="M0 0 C0.495 1.485 0.495 1.485 1 3 C0.53868179 3.4590976 0.07736359 3.91819519 -0.39793396 4.39120483 C-5.18601454 9.15721272 -9.97061174 13.92669678 -14.75317383 18.69824219 C-16.54003677 20.48006713 -18.32779494 22.26099478 -20.11645508 24.04101562 C-22.68284552 26.59531722 -25.24603057 29.15279701 -27.80859375 31.7109375 C-28.6127623 32.50994476 -29.41693085 33.30895203 -30.24546814 34.13217163 C-30.98616043 34.87278839 -31.72685272 35.61340515 -32.48999023 36.37646484 C-33.14507065 37.02932465 -33.80015106 37.68218445 -34.4750824 38.35482788 C-36.08614584 39.93892593 -36.08614584 39.93892593 -37 42 C-38.32 41.67 -39.64 41.34 -41 41 C-41 40.01 -41 39.02 -41 38 C-40.27167969 37.76023437 -39.54335938 37.52046875 -38.79296875 37.2734375 C-35.60405519 35.81947132 -33.75696293 34.12341542 -31.3125 31.625 C-30.54550781 30.85414063 -29.77851563 30.08328125 -28.98828125 29.2890625 C-27.19171639 27.22071867 -26.18224171 25.43340334 -25 23 C-24.2575 22.566875 -23.515 22.13375 -22.75 21.6875 C-19.51765868 19.70401783 -17.65282059 17.38340988 -15.33203125 14.42578125 C-14.89246094 13.95527344 -14.45289063 13.48476563 -14 13 C-13.34 13 -12.68 13 -12 13 C-11.773125 12.38125 -11.54625 11.7625 -11.3125 11.125 C-9.62070165 8.38589791 -8.00755839 7.94975528 -5 7 C-5 6.34 -5 5.68 -5 5 C-4.34 5 -3.68 5 -3 5 C-2.690625 4.360625 -2.38125 3.72125 -2.0625 3.0625 C-1 1 -1 1 0 0 Z " fill="#D37F37" transform="translate(444,449)"/>
<path d="M0 0 C0.66 0 1.32 0 2 0 C0.42634358 4.5221006 -2.00554597 8.34183439 -4.625 12.3125 C-5.09139893 13.02656006 -5.55779785 13.74062012 -6.03833008 14.47631836 C-12.95341002 25.03161543 -19.98059682 35.51393063 -27 46 C-30.36748512 44.48052501 -31.60840337 43.47899158 -33 40 C-32.01 40.33 -31.02 40.66 -30 41 C-30 41.66 -30 42.32 -30 43 C-25.54564354 38.94911785 -22.61360793 34.50172552 -19.5 29.375 C-15.08960087 22.26237627 -10.57150889 15.23998238 -5.875 8.3125 C-5.31876953 7.48089355 -4.76253906 6.64928711 -4.18945312 5.79248047 C-3.67060547 5.03209473 -3.15175781 4.27170898 -2.6171875 3.48828125 C-2.15940918 2.81321533 -1.70163086 2.13814941 -1.22998047 1.44262695 C-0.82408691 0.96656006 -0.41819336 0.49049316 0 0 Z " fill="#DDB33D" transform="translate(611,409)"/>
<path d="M0 0 C1.32 0.33 2.64 0.66 4 1 C3.33613281 1.65355469 2.67226563 2.30710937 1.98828125 2.98046875 C-2.40704183 7.37579183 -6.61151229 11.95565288 -10.85351562 16.49804688 C-23.19541595 29.66667737 -23.19541595 29.66667737 -30 35 C-31.68528688 36.64783606 -33.35697047 38.31002677 -35 40 C-35.66 39.67 -36.32 39.34 -37 39 C-36.43152344 38.443125 -35.86304688 37.88625 -35.27734375 37.3125 C-34.50519531 36.549375 -33.73304688 35.78625 -32.9375 35 C-32.18339844 34.2575 -31.42929687 33.515 -30.65234375 32.75 C-28.6306435 30.65386307 -26.73143275 28.54409409 -24.83984375 26.3359375 C-20.36142829 21.17305865 -15.49034202 16.41993186 -10.625 11.625 C-8.82324599 9.8486586 -7.02364817 8.07012661 -5.2265625 6.2890625 C-4.43846191 5.51256348 -3.65036133 4.73606445 -2.83837891 3.93603516 C-0.94237659 2.12774043 -0.94237659 2.12774043 0 0 Z " fill="#C16F36" transform="translate(369,437)"/>
<path d="M0 0 C2 2 2 2 2.1953125 4.6015625 C2.17210937 5.59929688 2.14890625 6.59703125 2.125 7.625 C2.10695313 8.62789062 2.08890625 9.63078125 2.0703125 10.6640625 C2.03550781 11.82035156 2.03550781 11.82035156 2 13 C0.37536158 13.05395478 -1.24978541 13.09277195 -2.875 13.125 C-3.77992188 13.14820313 -4.68484375 13.17140625 -5.6171875 13.1953125 C-8 13 -8 13 -10 11 C-9.44444444 6.44444444 -9.44444444 6.44444444 -8 5 C-5.66702567 4.95907063 -3.33294775 4.95758277 -1 5 C-1 4.34 -1 3.68 -1 3 C-3.31 3.33 -5.62 3.66 -8 4 C-8.33 3.01 -8.66 2.02 -9 1 C-5.98675805 -0.50662097 -3.31713623 -0.17770373 0 0 Z " fill="#090909" transform="translate(968,970)"/>
<path d="M0 0 C0.99 0.66 1.98 1.32 3 2 C2.319375 2.495 1.63875 2.99 0.9375 3.5 C-1.32531124 5.4257968 -2.99880352 7.10152553 -4.875 9.34375 C-10.23819216 15.54077792 -16.12427982 21.23030302 -21.9375 27 C-23.11026009 28.16773374 -24.28278798 29.33570074 -25.45507812 30.50390625 C-28.30071689 33.33863234 -31.14947453 36.17018824 -34 39 C-34.66 38.01 -35.32 37.02 -36 36 C-35.34773438 35.43152344 -34.69546875 34.86304688 -34.0234375 34.27734375 C-29.51267778 30.29217402 -25.29851545 26.35778824 -21.50390625 21.6875 C-19.74772886 19.71693212 -17.8308132 18.07463217 -15.8125 16.375 C-12.76909233 13.80334928 -11.03755806 11.42680219 -9 8 C-7.01924973 6.63823419 -5.01920337 5.30406884 -3 4 C-1.16699091 1.89424357 -1.16699091 1.89424357 0 0 Z " fill="#BE6D36" transform="translate(367,461)"/>
<path d="M0 0 C0.66 0 1.32 0 2 0 C2.65272532 2.64429651 3.29726828 5.29017506 3.9375 7.9375 C4.11990234 8.67291016 4.30230469 9.40832031 4.49023438 10.16601562 C6.89293162 20.16997324 7.13348612 29.79135395 7.0625 40.0625 C7.05798828 41.30966797 7.05347656 42.55683594 7.04882812 43.84179688 C7.03713163 46.89458221 7.02074086 49.94726498 7 53 C6.34 53 5.68 53 5 53 C4.98541748 52.43418213 4.97083496 51.86836426 4.95581055 51.28540039 C4.51465692 35.72031586 3.07480413 20.42928188 1 5 C-0.65 5.66 -2.3 6.32 -4 7 C-2.68 4.69 -1.36 2.38 0 0 Z " fill="#D4AF3A" transform="translate(675,362)"/>
<path d="M0 0 C0.33 1.32 0.66 2.64 1 4 C1.66 4.33 2.32 4.66 3 5 C3 20.18 3 35.36 3 51 C4.65 51.33 6.3 51.66 8 52 C4.91190305 53.76462683 3.76687864 54 0 54 C0 36.18 0 18.36 0 0 Z " fill="#B4712B" transform="translate(544,508)"/>
<path d="M0 0 C0 0.33 0 0.66 0 1 C-4.56760337 1.73819853 -8.87739001 2.08640393 -13.5 2 C-20.28342111 1.95265808 -27.03536858 2.14530708 -33.8125 2.4375 C-35.24335938 2.49647461 -35.24335938 2.49647461 -36.703125 2.55664062 C-41.07134211 2.75354362 -45.3823827 3.02876366 -49.72265625 3.5625 C-56.68067956 4.30127694 -63.6509764 3.85356805 -70.625 3.5625 C-72.02471583 3.50913888 -73.42445553 3.45640008 -74.82421875 3.40429688 C-78.21643041 3.27562678 -81.60827006 3.14071053 -85 3 C-85 2.67 -85 2.34 -85 2 C-24.88682466 -0.41989451 -24.88682466 -0.41989451 0 0 Z " fill="#5A3D33" transform="translate(257,546)"/>
<path d="M0 0 C0 3.46551464 -0.39192151 3.79933951 -2.625 6.25 C-5.31580825 9.23837998 -7.88655573 12.2911474 -10.41015625 15.421875 C-12 17 -12 17 -14.28173828 18.29321289 C-17.3160816 20.19846654 -19.56508058 22.33888525 -22.08203125 24.88671875 C-22.54107346 25.34859085 -23.00011566 25.81046295 -23.47306824 26.28633118 C-24.92434914 27.74872138 -26.36848204 29.21794126 -27.8125 30.6875 C-28.80096646 31.68600823 -29.78989437 32.68405989 -30.77929688 33.68164062 C-33.19077274 36.11664308 -35.59744957 38.5561959 -38 41 C-38 38 -38 38 -36.55737305 36.1966095 C-35.88230713 35.52820541 -35.20724121 34.85980133 -34.51171875 34.17114258 C-33.37053589 33.03029961 -33.37053589 33.03029961 -32.20629883 31.8664093 C-31.37509521 31.05068954 -30.5438916 30.23496979 -29.6875 29.39453125 C-28.84405029 28.55532639 -28.00060059 27.71612152 -27.1315918 26.85148621 C-24.42799842 24.1647262 -21.71417532 21.48856565 -19 18.8125 C-17.1685891 16.99612983 -15.33785091 15.1790811 -13.5078125 13.36132812 C-9.01299342 8.8996402 -4.50972499 4.44661823 0 0 Z " fill="#9A5E41" transform="translate(322,486)"/>
<path d="M0 0 C0.57145752 0.24129639 1.14291504 0.48259277 1.73168945 0.73120117 C-1.05525236 3.56760407 -3.84873872 6.39737808 -6.6484375 9.22119141 C-7.59980212 10.18260965 -8.54936346 11.14581581 -9.49707031 12.11083984 C-10.86006175 13.49810667 -12.23011466 14.87842445 -13.6003418 16.25854492 C-14.83361206 17.50752563 -14.83361206 17.50752563 -16.09179688 18.78173828 C-18.26831055 20.73120117 -18.26831055 20.73120117 -21.26831055 21.73120117 C-20.40203236 15.89969006 -15.44456124 12.39509323 -11.45581055 8.41870117 C-10.22507812 7.14542969 -10.22507812 7.14542969 -8.96948242 5.84643555 C-7.77742188 4.65050781 -7.77742188 4.65050781 -6.5612793 3.43041992 C-5.83448975 2.69654053 -5.1077002 1.96266113 -4.35888672 1.20654297 C-2.26831055 -0.26879883 -2.26831055 -0.26879883 0 0 Z " fill="#E6AE3D" transform="translate(486.268310546875,387.268798828125)"/>
<path d="M0 0 C1.65 0.33 3.3 0.66 5 1 C4.48588739 8.583161 3.0257679 15.98856541 0 23 C-0.99 23.33 -1.98 23.66 -3 24 C-2.5359375 22.515 -2.5359375 22.515 -2.0625 21 C-0.31795655 14.17029798 -0.32328707 7.01022481 0 0 Z " fill="#F5C739" transform="translate(672,437)"/>
<path d="M0 0 C-0.33 1.32 -0.66 2.64 -1 4 C-2.19625 3.9175 -3.3925 3.835 -4.625 3.75 C-9.09319955 3.73415532 -11.50779476 5.17297671 -15 8 C-15.66 8.66 -16.32 9.32 -17 10 C-17.99 9.67 -18.98 9.34 -20 9 C-19.09447999 5.74012795 -18.06692589 4.06516468 -15.625 1.6875 C-10.42935413 -0.73116273 -5.63922179 -0.32849836 0 0 Z " fill="#EBEBEC" transform="translate(695,753)"/>
<path d="M0 0 C1.8125 0.1875 1.8125 0.1875 4 1 C8.16613782 6.54812543 7.65043802 12.34551874 7 19 C6.24864586 21.40951501 5.43595624 22.90589715 4 25 C3.34 25 2.68 25 2 25 C2.55338542 23.046875 3.10677083 21.09375 3.66015625 19.140625 C4.04634471 16.70808158 3.69879473 15.34689551 3 13 C2.47865781 10.15705584 1.9887861 7.30964398 1.5 4.4609375 C1.11297245 2.00913403 1.11297245 2.00913403 0 0 Z " fill="#ECC040" transform="translate(661,331)"/>
<path d="M0 0 C0.66 0 1.32 0 2 0 C2.33 8.25 2.66 16.5 3 25 C1.68 25 0.36 25 -1 25 C-1.02908357 21.58335127 -1.04682691 18.1667345 -1.0625 14.75 C-1.07087891 13.78191406 -1.07925781 12.81382812 -1.08789062 11.81640625 C-1.09111328 10.88183594 -1.09433594 9.94726562 -1.09765625 8.984375 C-1.10289307 8.12553711 -1.10812988 7.26669922 -1.11352539 6.38183594 C-1.00539986 4.11329256 -0.63582423 2.17368285 0 0 Z " fill="#F6F6F5" transform="translate(414,759)"/>
<path d="M0 0 C1 3 1 3 0.27490234 4.69824219 C-0.11745605 5.30829102 -0.50981445 5.91833984 -0.9140625 6.546875 C-1.34589844 7.2275 -1.77773438 7.908125 -2.22265625 8.609375 C-2.68542969 9.31578125 -3.14820313 10.0221875 -3.625 10.75 C-4.06457031 11.4409375 -4.50414062 12.131875 -4.95703125 12.84375 C-7.83421299 17.33249101 -10.87039497 21.68408259 -14 26 C-14.99 25.67 -15.98 25.34 -17 25 C-15.49827784 20.36969001 -15.49827784 20.36969001 -13.0625 18.5625 C-10.30904929 16.47655249 -9.54079572 14.08527755 -8 11 C-6.6439588 9.01390524 -5.24788361 7.05453207 -3.8125 5.125 C-3.09707031 4.15820312 -2.38164063 3.19140625 -1.64453125 2.1953125 C-1.10183594 1.47085937 -0.55914063 0.74640625 0 0 Z " fill="#E5BC40" transform="translate(629,382)"/>
<path d="M0 0 C5.76774721 4.89004655 11.39476999 9.92484204 17 15 C15.68 16.32 14.36 17.64 13 19 C10.82554873 16.21431795 8.66179961 13.42050802 6.5 10.625 C5.87996094 9.8309375 5.25992187 9.036875 4.62109375 8.21875 C4.03457031 7.45820313 3.44804687 6.69765625 2.84375 5.9140625 C2.29912109 5.2123291 1.75449219 4.5105957 1.19335938 3.78759766 C0 2 0 2 0 0 Z " fill="#0C6D7A" transform="translate(382,488)"/>
<path d="M0 0 C0 3.69349436 -0.88153908 5.00493457 -3 8 C-4.65385233 9.34919532 -6.321702 10.68133728 -8 12 C-9.75758849 13.93957313 -11.36907572 15.94969519 -13 18 C-14.32 17.67 -15.64 17.34 -17 17 C-15.37660195 15.29115995 -13.70680947 13.62553283 -12 12 C-11.34 12 -10.68 12 -10 12 C-9.75507813 11.42765625 -9.51015625 10.8553125 -9.2578125 10.265625 C-7.78889901 7.61975598 -6.04651756 5.85146861 -3.875 3.75 C-3.15054687 3.04359375 -2.42609375 2.3371875 -1.6796875 1.609375 C-1.12539063 1.07828125 -0.57109375 0.5471875 0 0 Z " fill="#D4A53D" transform="translate(501,369)"/>
<path d="M0 0 C1 3 1 3 0.13549805 4.80932617 C-0.31784912 5.46392822 -0.77119629 6.11853027 -1.23828125 6.79296875 C-1.72876953 7.50517578 -2.21925781 8.21738281 -2.72460938 8.95117188 C-3.24861328 9.68916016 -3.77261719 10.42714844 -4.3125 11.1875 C-4.82490234 11.93708984 -5.33730469 12.68667969 -5.86523438 13.45898438 C-8.71470282 17.54186029 -8.71470282 17.54186029 -10 19 C-10.66 19 -11.32 19 -12 19 C-11.34344165 14.96117138 -9.25073161 11.78836115 -7.125 8.375 C-6.77308594 7.78976562 -6.42117188 7.20453125 -6.05859375 6.6015625 C-4.22961069 3.63711412 -2.94409842 1.96273228 0 0 Z " fill="#E8BE42" transform="translate(618,373)"/>
<path d="M0 0 C0.66 0 1.32 0 2 0 C0.37506074 4.71049808 -2.14711508 8.62238404 -4.875 12.75 C-5.52662109 13.77673828 -5.52662109 13.77673828 -6.19140625 14.82421875 C-6.62066406 15.47519531 -7.04992187 16.12617188 -7.4921875 16.796875 C-7.87745605 17.38823242 -8.26272461 17.97958984 -8.65966797 18.58886719 C-10.32842978 20.34577853 -11.64424748 20.61683919 -14 21 C-10.48404313 15.37874373 -6.91969178 9.79317658 -3.1875 4.3125 C-2.62417969 3.48363281 -2.06085937 2.65476562 -1.48046875 1.80078125 C-0.99191406 1.20652344 -0.50335937 0.61226563 0 0 Z " fill="#E5BB41" transform="translate(611,409)"/>
<path d="M0 0 C0.99 0 1.98 0 3 0 C3 3 3 3 1 6 C0.68356727 8.44544278 0.68356727 8.44544278 0.75 11.0625 C0.74484375 11.94035156 0.7396875 12.81820313 0.734375 13.72265625 C0.78440648 16.19802328 0.78440648 16.19802328 3 18 C2.625 20.625 2.625 20.625 2 23 C-1.05593351 20.20979984 -1.93192119 18.21433605 -2.16796875 14.00390625 C-2.17441406 12.86824219 -2.18085937 11.73257812 -2.1875 10.5625 C-2.20167969 9.42941406 -2.21585938 8.29632813 -2.23046875 7.12890625 C-2.01071135 4.14542021 -1.55843386 2.50704577 0 0 Z " fill="#E2B339" transform="translate(626,334)"/>
<path d="M0 0 C0.66 0.33 1.32 0.66 2 1 C0.6415798 4.04332765 -0.88463024 6.12309151 -3.2578125 8.453125 C-3.88300781 9.071875 -4.50820313 9.690625 -5.15234375 10.328125 C-5.80332031 10.96234375 -6.45429688 11.5965625 -7.125 12.25 C-7.78371094 12.8996875 -8.44242187 13.549375 -9.12109375 14.21875 C-10.74296643 15.81711727 -12.3693281 17.41061897 -14 19 C-14.66 18.01 -15.32 17.02 -16 16 C-15.34773438 15.43152344 -14.69546875 14.86304688 -14.0234375 14.27734375 C-8.93114851 9.77840407 -4.27266363 5.28461028 0 0 Z " fill="#B66A3D" transform="translate(347,481)"/>
<path d="M0 0 C0.75023437 0.58394531 0.75023437 0.58394531 1.515625 1.1796875 C1.515625 2.1696875 1.515625 3.1596875 1.515625 4.1796875 C-0.44201883 4.37425455 -2.40052821 4.56012997 -4.359375 4.7421875 C-5.44992187 4.84660156 -6.54046875 4.95101563 -7.6640625 5.05859375 C-10.484375 5.1796875 -10.484375 5.1796875 -12.484375 4.1796875 C-12.484375 4.8396875 -12.484375 5.4996875 -12.484375 6.1796875 C-13.804375 6.5096875 -15.124375 6.8396875 -16.484375 7.1796875 C-16.814375 6.5196875 -17.144375 5.8596875 -17.484375 5.1796875 C-15.0746231 4.11867734 -12.65887646 3.08095522 -10.234375 2.0546875 C-9.55246094 1.75175781 -8.87054687 1.44882812 -8.16796875 1.13671875 C-3.04041483 -1.00391056 -3.04041483 -1.00391056 0 0 Z " fill="#D89631" transform="translate(570.484375,499.8203125)"/>
<path d="M0 0 C0 3.61770393 -0.63458538 4.08448793 -3 6.6875 C-3.94552734 7.72970703 -3.94552734 7.72970703 -4.91015625 8.79296875 C-8.20151324 12.26888781 -11.57548544 15.65553903 -15 19 C-15.33 18.01 -15.66 17.02 -16 16 C-10.66666667 10.66666667 -5.33333333 5.33333333 0 0 Z " fill="#CD9037" transform="translate(467,426)"/>
<path d="M0 0 C0.99 0 1.98 0 3 0 C1.80595986 3.71479154 -0.4695239 5.42166621 -3.84765625 7.25 C-7.81492273 8.63242316 -11.86008797 8.2998729 -16 8 C-12.99112219 6.41841038 -10.36327963 5.56054661 -7 5 C-7 4.34 -7 3.68 -7 3 C-3.535 2.505 -3.535 2.505 0 2 C0 1.34 0 0.68 0 0 Z " fill="#F6C941" transform="translate(660,357)"/>
<path d="M0 0 C2.50357861 0.8345262 4.66785852 1.79371992 7 3 C6.67 4.65 6.34 6.3 6 8 C3.125 8.125 3.125 8.125 0 8 C-0.66 7.34 -1.32 6.68 -2 6 C-1.44444444 1.44444444 -1.44444444 1.44444444 0 0 Z " fill="#2C2C2C" transform="translate(960,975)"/>
<path d="M0 0 C0.66 0.99 1.32 1.98 2 3 C0.26461877 4.87002288 -1.4859335 6.71988092 -3.25 8.5625 C-3.98669922 9.36204102 -3.98669922 9.36204102 -4.73828125 10.17773438 C-6.203125 11.69140625 -6.203125 11.69140625 -9 14 C-10.32 13.67 -11.64 13.34 -13 13 C-8.71 8.71 -4.42 4.42 0 0 Z " fill="#C78532" transform="translate(442,429)"/>
<path d="M0 0 C1.32 0.33 2.64 0.66 4 1 C4 1.99 4 2.98 4 4 C4.57234375 4.08378906 5.1446875 4.16757812 5.734375 4.25390625 C8.67030973 5.22073993 10.09968312 6.73541623 12.25 8.9375 C12.95640625 9.64777344 13.6628125 10.35804688 14.390625 11.08984375 C16 13 16 13 16 15 C12.39313465 13.43982103 9.78799396 11.24234682 6.875 8.625 C6.00617187 7.85414063 5.13734375 7.08328125 4.2421875 6.2890625 C2.21663312 4.22116203 1.07807367 2.65278801 0 0 Z " fill="#E0B03A" transform="translate(539,413)"/>
<path d="M0 0 C5.28 0 10.56 0 16 0 C14 2 14 2 11.1796875 2.1953125 C10.08914063 2.17210937 8.99859375 2.14890625 7.875 2.125 C6.77929688 2.10695313 5.68359375 2.08890625 4.5546875 2.0703125 C3.29011719 2.03550781 3.29011719 2.03550781 2 2 C1.67 5.63 1.34 9.26 1 13 C0.67 13 0.34 13 0 13 C0 8.71 0 4.42 0 0 Z " fill="#1CC896" transform="translate(720,653)"/>
<path d="M0 0 C7.92 0 15.84 0 24 0 C19.96762715 2.01618643 17.40848715 3.17801793 12.98828125 2.87890625 C12.23095703 2.83056641 11.47363281 2.78222656 10.69335938 2.73242188 C9.90767578 2.67634766 9.12199219 2.62027344 8.3125 2.5625 C7.51521484 2.51029297 6.71792969 2.45808594 5.89648438 2.40429688 C3.93063478 2.27480978 1.96526335 2.13809959 0 2 C0 1.34 0 0.68 0 0 Z " fill="#15D39C" transform="translate(844,653)"/>
<path d="M0 0 C0.66 0.33 1.32 0.66 2 1 C-0.64 3.97 -3.28 6.94 -6 10 C-6.33 9.01 -6.66 8.02 -7 7 C-3.78688525 1.26229508 -3.78688525 1.26229508 0 0 Z M-14 15 C-13.34 15.33 -12.68 15.66 -12 16 C-12.99 16.66 -13.98 17.32 -15 18 C-14.67 17.01 -14.34 16.02 -14 15 Z " fill="#EAB438" transform="translate(507,365)"/>
<path d="M0 0 C5.94 0 11.88 0 18 0 C17.67 0.66 17.34 1.32 17 2 C13.9453125 2.37890625 13.9453125 2.37890625 10.125 2.5625 C4.97193974 2.79531842 4.97193974 2.79531842 0 4 C0 2.68 0 1.36 0 0 Z " fill="#17D09B" transform="translate(609,653)"/>
<path d="M0 0 C0.66 0 1.32 0 2 0 C1.51061681 4.27461239 -0.95742826 6.32551066 -3.9375 9.25 C-4.83339844 10.14203125 -5.72929687 11.0340625 -6.65234375 11.953125 C-9 14 -9 14 -11 14 C-9.61263874 10.84375314 -7.99607292 8.80136567 -5.5 6.4375 C-3.27903267 4.32475777 -1.72257583 2.58386374 0 0 Z " fill="#E0A842" transform="translate(489,402)"/>
<path d="M0 0 C0.99 0 1.98 0 3 0 C3 4.29 3 8.58 3 13 C2.01 13 1.02 13 0 13 C0 8.71 0 4.42 0 0 Z " fill="#020202" transform="translate(973,970)"/>
<path d="M0 0 C1.25425781 0.00902344 2.50851563 0.01804687 3.80078125 0.02734375 C4.75339844 0.03894531 5.70601562 0.05054688 6.6875 0.0625 C6.3575 1.0525 6.0275 2.0425 5.6875 3.0625 C-0.2525 2.7325 -6.1925 2.4025 -12.3125 2.0625 C-12.3125 1.7325 -12.3125 1.4025 -12.3125 1.0625 C-8.15623632 0.05323521 -4.26884906 -0.03989579 0 0 Z " fill="#A36F58" transform="translate(188.3125,548.9375)"/>
<path d="M0 0 C0.66 0.33 1.32 0.66 2 1 C-2.62 5.62 -7.24 10.24 -12 15 C-12 10.88043292 -9.80684384 9.21199183 -7.125 6.375 C-6.66480469 5.87226563 -6.20460938 5.36953125 -5.73046875 4.8515625 C-2.29546523 1.14773261 -2.29546523 1.14773261 0 0 Z " fill="#B26C46" transform="translate(329,501)"/>
<path d="M0 0 C0 3.47684256 -0.66401429 5.7936343 -2 9 C-4.125 10.875 -4.125 10.875 -6 12 C-6.64453125 10.23046875 -6.64453125 10.23046875 -7 8 C-6.07421875 6.11328125 -6.07421875 6.11328125 -4.6875 4.3125 C-4.23761719 3.71050781 -3.78773438 3.10851562 -3.32421875 2.48828125 C-2 1 -2 1 0 0 Z " fill="#E7BA3A" transform="translate(603,397)"/>
<path d="M0 0 C5.28 0 10.56 0 16 0 C15.67 0.99 15.34 1.98 15 3 C10.05 2.67 5.1 2.34 0 2 C0 1.34 0 0.68 0 0 Z " fill="#0094A0" transform="translate(192,653)"/>
<path d="M0 0 C1.2065625 0.0309375 1.2065625 0.0309375 2.4375 0.0625 C-1.39191989 3.39243034 -5.93772222 5.11574525 -10.5625 7.0625 C-10.5625 5.0625 -10.5625 3.0625 -10.5625 1.0625 C-9.428125 1.083125 -8.29375 1.10375 -7.125 1.125 C-3.34891585 1.05875291 -3.4052247 0.08305426 0 0 Z " fill="#E49B37" transform="translate(595.5625,542.9375)"/>
<path d="M0 0 C0.66 0.33 1.32 0.66 2 1 C1.505 1.515625 1.01 2.03125 0.5 2.5625 C-1.31118285 5.02866158 -1.31118285 5.02866158 -1 8.5625 C-1 9.696875 -1 10.83125 -1 12 C-1.99 12.99 -2.98 13.98 -4 15 C-4 10.71 -4 6.42 -4 2 C-2.68 1.34 -1.36 0.68 0 0 Z " fill="#EFC13B" transform="translate(633,407)"/>
<path d="M0 0 C0.66 0.33 1.32 0.66 2 1 C-7.22551253 9.81548975 -7.22551253 9.81548975 -13 11 C-13.33 10.34 -13.66 9.68 -14 9 C-13.15695312 8.51789063 -12.31390625 8.03578125 -11.4453125 7.5390625 C-10.34960938 6.90742188 -9.25390625 6.27578125 -8.125 5.625 C-7.03445313 4.99851562 -5.94390625 4.37203125 -4.8203125 3.7265625 C-1.98766657 2.14358549 -1.98766657 2.14358549 0 0 Z " fill="#D69A35" transform="translate(585,488)"/>
<path d="M0 0 C0.66 0.33 1.32 0.66 2 1 C-1.72346836 5.42094803 -5.29521038 9.57833482 -10 13 C-9.10908401 6.98631707 -4.63126326 3.47344745 0 0 Z " fill="#CC9C3A" transform="translate(504,388)"/>
<path d="M0 0 C0.66 0 1.32 0 2 0 C0.35821735 4.77609498 -2.26546702 8.79382904 -5 13 C-5.99 12.67 -6.98 12.34 -8 12 C-6.85573734 10.186508 -5.70954608 8.37423275 -4.5625 6.5625 C-3.60537109 5.04849609 -3.60537109 5.04849609 -2.62890625 3.50390625 C-1 1 -1 1 0 0 Z " fill="#EABF3D" transform="translate(640,364)"/>
<path d="M0 0 C0 0.33 0 0.66 0 1 C-1.98 1.33 -3.96 1.66 -6 2 C-6.33 2.99 -6.66 3.98 -7 5 C-10.0625 6.6875 -10.0625 6.6875 -13 8 C-12.51789077 2.45574388 -12.51789077 2.45574388 -10.4375 0.625 C-6.89649716 -0.28294945 -3.65233264 -0.12174442 0 0 Z " fill="#CDCDCD" transform="translate(466,752)"/>
<path d="M0 0 C0.33 0 0.66 0 1 0 C1.25 2.25 1.25 2.25 1 5 C-0.8125 7 -0.8125 7 -3 9 C-4.00568242 10.66324401 -5.00664799 12.32936253 -6 14 C-6.99 14.495 -6.99 14.495 -8 15 C-6.62859834 11.32305352 -4.96304199 8.04681411 -2.9375 4.6875 C-2.41027344 3.80449219 -1.88304687 2.92148437 -1.33984375 2.01171875 C-0.89769531 1.34785156 -0.45554687 0.68398438 0 0 Z " fill="#15B482" transform="translate(747,668)"/>
<path d="M0 0 C1.32 0 2.64 0 4 0 C4 0.66 4 1.32 4 2 C5.32 2.66 6.64 3.32 8 4 C8 4.66 8 5.32 8 6 C8.99 6 9.98 6 11 6 C11.33 7.65 11.66 9.3 12 11 C7.81576108 7.49102731 3.80411834 3.91939465 0 0 Z " fill="#C76F34" transform="translate(377,466)"/>
<path d="M0 0 C0.33 0.99 0.66 1.98 1 3 C-0.9375 6.1875 -0.9375 6.1875 -3 9 C-5.62187494 7.95125002 -6.79371361 7.35068687 -8.25 4.875 C-8.4975 4.25625 -8.745 3.6375 -9 3 C-8.01 3.33 -7.02 3.66 -6 4 C-6 4.66 -6 5.32 -6 6 C-5.195625 5.195625 -4.39125 4.39125 -3.5625 3.5625 C-2.375 2.375 -1.1875 1.1875 0 0 Z " fill="#E7B940" transform="translate(587,446)"/>
<path d="M0 0 C1.32 0 2.64 0 4 0 C4 0.66 4 1.32 4 2 C5.32 2 6.64 2 8 2 C7.67 2.99 7.34 3.98 7 5 C3.625 5.125 3.625 5.125 0 5 C-0.66 4.34 -1.32 3.68 -2 3 C-1.34 3 -0.68 3 0 3 C0 2.01 0 1.02 0 0 Z " fill="#F6C637" transform="translate(641,324)"/>
<path d="M0 0 C0.99 0.33 1.98 0.66 3 1 C2.67 2.65 2.34 4.3 2 6 C-0.875 6.125 -0.875 6.125 -4 6 C-4.66 5.34 -5.32 4.68 -6 4 C-3.1875 1.9375 -3.1875 1.9375 0 0 Z " fill="#E7BB3C" transform="translate(638,323)"/>
<path d="M0 0 C0.66 0.33 1.32 0.66 2 1 C2 1.66 2 2.32 2 3 C0.54735962 3.8638129 -0.9123163 4.71580454 -2.375 5.5625 C-3.59316406 6.27599609 -3.59316406 6.27599609 -4.8359375 7.00390625 C-5.55007813 7.33261719 -6.26421875 7.66132813 -7 8 C-7.66 7.67 -8.32 7.34 -9 7 C-9 6.34 -9 5.68 -9 5 C-7.54735962 4.1361871 -6.0876837 3.28419546 -4.625 2.4375 C-3.40683594 1.72400391 -3.40683594 1.72400391 -2.1640625 0.99609375 C-1.44992187 0.66738281 -0.73578125 0.33867187 0 0 Z " fill="#13B982" transform="translate(448,262)"/>
<path d="M0 0 C2.31 0.33 4.62 0.66 7 1 C6.39816251 3.02045442 5.72693904 5.02111039 5 7 C4.01 7.495 4.01 7.495 3 8 C0 2.25 0 2.25 0 0 Z " fill="#B6612E" transform="translate(515,576)"/>
<path d="M0 0 C1.27230469 0.01804687 2.54460937 0.03609375 3.85546875 0.0546875 C5.31919922 0.08949219 5.31919922 0.08949219 6.8125 0.125 C6.4825 0.785 6.1525 1.445 5.8125 2.125 C0.46246832 3.28366976 -4.85382103 3.38823976 -10.1875 2.125 C-6.4507157 -0.36618953 -4.44298181 -0.0815226 0 0 Z " fill="#0196A1" transform="translate(314.1875,652.875)"/>
<path d="M0 0 C3.65316671 1.24976756 4.78065836 1.67098753 7 5 C5.68 5.99 4.36 6.98 3 8 C0.9375 5.6875 0.9375 5.6875 -1 3 C-0.67 2.01 -0.34 1.02 0 0 Z " fill="#087886" transform="translate(392,499)"/>
<path d="M0 0 C0 3.96130371 -1.34877125 4.82914401 -4 7.6875 C-4.7425 8.49574219 -5.485 9.30398438 -6.25 10.13671875 C-6.8275 10.75160156 -7.405 11.36648438 -8 12 C-9.32 11.67 -10.64 11.34 -12 11 C-8.04 7.37 -4.08 3.74 0 0 Z " fill="#D7A035" transform="translate(599,476)"/>
<path d="M0 0 C0.66 0.33 1.32 0.66 2 1 C1.71517632 2.41805831 1.42181856 3.83440379 1.125 5.25 C0.96257813 6.03890625 0.80015625 6.8278125 0.6328125 7.640625 C0.00849925 9.96831144 -0.84838542 11.89031952 -2 14 C-2.66 14 -3.32 14 -4 14 C-3.79503906 13.32453125 -3.59007812 12.6490625 -3.37890625 11.953125 C-3.10949219 11.06109375 -2.84007812 10.1690625 -2.5625 9.25 C-2.16224609 7.92742187 -2.16224609 7.92742187 -1.75390625 6.578125 C-1.11531506 4.39434165 -0.53224167 2.21164502 0 0 Z " fill="#EEC23F" transform="translate(673,447)"/>
<path d="M0 0 C0.99 0.33 1.98 0.66 3 1 C0.69 4.3 -1.62 7.6 -4 11 C-5 7 -5 7 -4.00390625 5.078125 C-3.52824219 4.47484375 -3.05257812 3.8715625 -2.5625 3.25 C-2.08941406 2.63640625 -1.61632812 2.0228125 -1.12890625 1.390625 C-0.75636719 0.93171875 -0.38382813 0.4728125 0 0 Z " fill="#DEB239" transform="translate(590,414)"/>
<path d="M0 0 C3.34249629 0.59687434 5.46436342 1.73603877 8 4 C8 4.66 8 5.32 8 6 C8.66 6 9.32 6 10 6 C10.33 6.99 10.66 7.98 11 9 C7.40303663 8.42703238 5.74677205 7.10347171 3.25 4.5 C2.63640625 3.8709375 2.0228125 3.241875 1.390625 2.59375 C0 1 0 1 0 0 Z " fill="#E2B13C" transform="translate(511,388)"/>
<path d="M0 0 C0 3.66184524 -0.919642 5.02806 -3 8 C-5.1875 9.8125 -5.1875 9.8125 -7 11 C-6.68232368 5.59950264 -3.80003673 3.47662935 0 0 Z " fill="#C57F35" transform="translate(428,443)"/>
<path d="M0 0 C2.99220268 1.36370299 5.29026529 2.94908083 7.75 5.125 C8.67039062 5.93324219 8.67039062 5.93324219 9.609375 6.7578125 C10.06828125 7.16773438 10.5271875 7.57765625 11 8 C10.01 9.485 10.01 9.485 9 11 C7.86874978 9.92319498 6.74525081 8.83824365 5.625 7.75 C4.99851562 7.14671875 4.37203125 6.5434375 3.7265625 5.921875 C2.02689839 4.0299412 1.01540134 2.31798691 0 0 Z " fill="#EBBA3B" transform="translate(549,402)"/>
<path d="M0 0 C4.38000076 0.50057152 6.84169815 1.93193534 10 5 C10 5.99 10 6.98 10 8 C6.05205855 6.32971708 3.18203882 3.8204435 0 1 C0 0.67 0 0.34 0 0 Z " fill="#E9B63D" transform="translate(522,379)"/>
<path d="M0 0 C0.99 0.99 1.98 1.98 3 3 C0.36 4.65 -2.28 6.3 -5 8 C-4.64950425 4.75791433 -4.43778819 3.38472296 -1.9375 1.1875 C-1.298125 0.795625 -0.65875 0.40375 0 0 Z " fill="#E09D30" transform="translate(611,531)"/>
<path d="M0 0 C1.9375 0.8125 1.9375 0.8125 4 2 C4.33 2.99 4.66 3.98 5 5 C5.99 5 6.98 5 8 5 C8.66 6.65 9.32 8.3 10 10 C6.82028869 8.62442924 4.95149011 7.10041354 2.75 4.4375 C1.96882812 3.50744141 1.96882812 3.50744141 1.171875 2.55859375 C0 1 0 1 0 0 Z " fill="#E7B83D" transform="translate(564,436)"/>
<path d="M0 0 C-1.38188453 3.21043882 -2.92421903 5.04936365 -5.625 7.25 C-6.57246094 8.03117187 -6.57246094 8.03117187 -7.5390625 8.828125 C-8.02117187 9.21484375 -8.50328125 9.6015625 -9 10 C-9 7 -9 7 -7.5390625 5.17578125 C-6.90742188 4.56089844 -6.27578125 3.94601562 -5.625 3.3125 C-4.68527344 2.37857422 -4.68527344 2.37857422 -3.7265625 1.42578125 C-2 0 -2 0 0 0 Z " fill="#E2A33A" transform="translate(477,417)"/>
<path d="M0 0 C0 4.32035599 -2.06845243 6.9179135 -5 10 C-7.8125 10.9375 -7.8125 10.9375 -10 11 C-6.79239749 7.19364503 -3.59253891 3.45436433 0 0 Z " fill="#11A679" transform="translate(408,290)"/>
<path d="M0 0 C0.33 0 0.66 0 1 0 C0.03644647 9.41002278 0.03644647 9.41002278 -1 14 C-3 11 -3 11 -2.79296875 8.5546875 C-2.59316406 7.67039062 -2.39335938 6.78609375 -2.1875 5.875 C-1.99542969 4.98554687 -1.80335938 4.09609375 -1.60546875 3.1796875 C-1 1 -1 1 0 0 Z " fill="#1CB486" transform="translate(615,674)"/>
<path d="M0 0 C-0.33 0.99 -0.66 1.98 -1 3 C-0.34 3.33 0.32 3.66 1 4 C1 4.66 1 5.32 1 6 C-0.65 6 -2.3 6 -4 6 C-4.33 5.01 -4.66 4.02 -5 3 C-5.66 2.34 -6.32 1.68 -7 1 C-4 0 -4 0 0 0 Z " fill="#DB9131" transform="translate(552,506)"/>
<path d="M0 0 C0.66 0.33 1.32 0.66 2 1 C0.84826645 3.46800047 -0.04783565 5.04783565 -2 7 C-2.99 6.67 -3.98 6.34 -5 6 C-5 5.01 -5 4.02 -5 3 C-2.625 1.25 -2.625 1.25 0 0 Z " fill="#C97B36" transform="translate(412,459)"/>
<path d="M0 0 C1 4 1 4 0.00390625 5.921875 C-0.47175781 6.52515625 -0.94742188 7.1284375 -1.4375 7.75 C-1.91058594 8.36359375 -2.38367188 8.9771875 -2.87109375 9.609375 C-3.24363281 10.06828125 -3.61617187 10.5271875 -4 11 C-4.99 10.67 -5.98 10.34 -7 10 C-3.535 5.05 -3.535 5.05 0 0 Z " fill="#EDC342" transform="translate(604,419)"/>
<path d="M0 0 C0.99 0 1.98 0 3 0 C1.61990379 3.33523252 0.15049348 5.18607951 -3 7 C-3.99 6.67 -4.98 6.34 -6 6 C-5.34 5.67 -4.68 5.34 -4 5 C-3.67 4.01 -3.34 3.02 -3 2 C-2.01 2 -1.02 2 0 2 C0 1.34 0 0.68 0 0 Z " fill="#E8BD40" transform="translate(660,357)"/>
<path d="M0 0 C3.63 0 7.26 0 11 0 C11.33 0.99 11.66 1.98 12 3 C8.04 2.67 4.08 2.34 0 2 C0 1.34 0 0.68 0 0 Z " fill="#D4AA3A" transform="translate(640,322)"/>
<path d="M0 0 C0.33 0 0.66 0 1 0 C1 4.95 1 9.9 1 15 C0.34 15 -0.32 15 -1 15 C-2.125 11.25 -2.125 11.25 -1 9 C-0.77532169 7.46331135 -0.59203195 5.92031946 -0.4375 4.375 C-0.35371094 3.55773437 -0.26992188 2.74046875 -0.18359375 1.8984375 C-0.12300781 1.27195312 -0.06242188 0.64546875 0 0 Z " fill="#22C693" transform="translate(706,656)"/>
<path d="M0 0 C-1.15173355 2.46800047 -2.04783565 4.04783565 -4 6 C-6.125 5.625 -6.125 5.625 -8 5 C-3.375 0 -3.375 0 0 0 Z " fill="#C89936" transform="translate(492,381)"/>
<path d="M0 0 C1 2 1 2 0.875 3.875 C-0.35753168 6.86829122 -2.41459763 8.14381368 -5 10 C-5.66 9.67 -6.32 9.34 -7 9 C-4.69 6.03 -2.38 3.06 0 0 Z " fill="#D0A033" transform="translate(609,464)"/>
<path d="M0 0 C0.33 0.99 0.66 1.98 1 3 C-1.31 5.31 -3.62 7.62 -6 10 C-6.33 9.01 -6.66 8.02 -7 7 C-6.34 7 -5.68 7 -5 7 C-5 6.34 -5 5.68 -5 5 C-4.34 5 -3.68 5 -3 5 C-2.690625 4.360625 -2.38125 3.72125 -2.0625 3.0625 C-1 1 -1 1 0 0 Z " fill="#C88535" transform="translate(444,449)"/>
<path d="M0 0 C1.32 0.66 2.64 1.32 4 2 C3.67 3.32 3.34 4.64 3 6 C0.03 5.505 0.03 5.505 -3 5 C-2.01 3.35 -1.02 1.7 0 0 Z " fill="#F8CC46" transform="translate(669,371)"/>
<path d="M0 0 C0.66 0 1.32 0 2 0 C2.16894443 1.74978157 2.33506309 3.49983612 2.5 5.25 C2.5928125 6.22453125 2.685625 7.1990625 2.78125 8.203125 C2.95800168 10.46302153 3 12.73320193 3 15 C2.34 15 1.68 15 1 15 C0.67 10.05 0.34 5.1 0 0 Z " fill="#116169" transform="translate(609,343)"/>
<path d="M0 0 C1.98 0 3.96 0 6 0 C6 1.32 6 2.64 6 4 C4.35 4 2.7 4 1 4 C0.67 2.68 0.34 1.36 0 0 Z " fill="#AEAEAD" transform="translate(481,753)"/>
<path d="M0 0 C0.33 0 0.66 0 1 0 C1.25532751 3.06393013 1.21861333 4.63233212 -0.375 7.3125 C-1.179375 8.1478125 -1.179375 8.1478125 -2 9 C-2.66 9 -3.32 9 -4 9 C-3.35499066 5.51694958 -1.95865224 2.93797836 0 0 Z " fill="#DFB53B" transform="translate(610,383)"/>
<path d="M0 0 C1.32 0.66 2.64 1.32 4 2 C1.03 4.475 1.03 4.475 -2 7 C-2.66 6.67 -3.32 6.34 -4 6 C-2.68 4.02 -1.36 2.04 0 0 Z " fill="#DEB339" transform="translate(648,380)"/>
<path d="M0 0 C0.66 0.66 1.32 1.32 2 2 C0.87926138 2.83905565 -0.24674547 3.67107831 -1.375 4.5 C-2.00148438 4.9640625 -2.62796875 5.428125 -3.2734375 5.90625 C-5 7 -5 7 -7 7 C-5.54744301 3.17053157 -3.57104439 1.87949705 0 0 Z " fill="#1DB785" transform="translate(464,315)"/>
<path d="M0 0 C0.33 0 0.66 0 1 0 C1.125 6.625 1.125 6.625 0 10 C-0.99 10.33 -1.98 10.66 -3 11 C-2.01 7.37 -1.02 3.74 0 0 Z " fill="#18B486" transform="translate(594,699)"/>
<path d="M0 0 C0.33 0 0.66 0 1 0 C0.67 2.64 0.34 5.28 0 8 C-0.99 8.33 -1.98 8.66 -3 9 C-2.5020163 5.26512223 -2.12508244 3.18762365 0 0 Z " fill="#18AC7F" transform="translate(660,664)"/>
<path d="M0 0 C0.33 0 0.66 0 1 0 C0.67 2.31 0.34 4.62 0 7 C-1.32 7.33 -2.64 7.66 -4 8 C-2.87548273 5.0280615 -1.77706209 2.66559313 0 0 Z " fill="#18BB87" transform="translate(756,653)"/>
<path d="M0 0 C1.98 0 3.96 0 6 0 C6 3 6 3 5 5 C4.34 5 3.68 5 3 5 C1.375 2.5 1.375 2.5 0 0 Z " fill="#3F1E0E" transform="translate(401,463)"/>
<path d="M0 0 C0.99 0 1.98 0 3 0 C4.48320272 3.83887763 5.22419163 6.06204091 4 10 C3.32845067 8.71086513 2.66291141 7.41859796 2 6.125 C1.62875 5.40570312 1.2575 4.68640625 0.875 3.9453125 C0 2 0 2 0 0 Z " fill="#1CAF7E" transform="translate(558,704)"/>
<path d="M0 0 C-0.33 0.66 -0.66 1.32 -1 2 C-3.06640625 2.6328125 -3.06640625 2.6328125 -5.5625 3.125 C-6.38878906 3.29257812 -7.21507812 3.46015625 -8.06640625 3.6328125 C-8.70449219 3.75398437 -9.34257813 3.87515625 -10 4 C-4.75 -1.425 -4.75 -1.425 0 0 Z " fill="#15A778" transform="translate(677,654)"/>
<path d="M0 0 C0.99 0.66 1.98 1.32 3 2 C-1.95 3.485 -1.95 3.485 -7 5 C-6.67 4.01 -6.34 3.02 -6 2 C-3.125 0.6875 -3.125 0.6875 0 0 Z " fill="#D78B32" transform="translate(576,551)"/>
<path d="M0 0 C0.99 0 1.98 0 3 0 C3 0.66 3 1.32 3 2 C3.66 2 4.32 2 5 2 C5.33 3.65 5.66 5.3 6 7 C3.95880212 5.38405168 1.95927063 3.7143618 0 2 C0 1.34 0 0.68 0 0 Z " fill="#C89B32" transform="translate(559,432)"/>
<path d="M0 0 C0.66 0.33 1.32 0.66 2 1 C2 1.66 2 2.32 2 3 C3.32 3.66 4.64 4.32 6 5 C5.67 5.99 5.34 6.98 5 8 C3.02 5.69 1.04 3.38 -1 1 C-0.67 0.67 -0.34 0.34 0 0 Z " fill="#DFAE3C" transform="translate(523,397)"/>
<path d="M0 0 C1.4606285 2.64738916 2 3.89448334 2 7 C0.68 6.34 -0.64 5.68 -2 5 C-2 3.68 -2 2.36 -2 1 C-1.34 0.67 -0.68 0.34 0 0 Z " fill="#F6C83A" transform="translate(646,386)"/>
<path d="M0 0 C1.65 0.99 3.3 1.98 5 3 C4.67 3.99 4.34 4.98 4 6 C0.535 4.02 0.535 4.02 -3 2 C-2.01 1.34 -1.02 0.68 0 0 Z " fill="#1BA577" transform="translate(575,315)"/>
<path d="M0 0 C0.33 1.32 0.66 2.64 1 4 C-0.65 5.32 -2.3 6.64 -4 8 C-4.33 7.01 -4.66 6.02 -5 5 C-3.35 3.35 -1.7 1.7 0 0 Z " fill="#1BB686" transform="translate(575,680)"/>
<path d="M0 0 C0.66 0 1.32 0 2 0 C2.1875 2.8125 2.1875 2.8125 2 6 C1.01 6.99 0.02 7.98 -1 9 C-0.67 6.03 -0.34 3.06 0 0 Z " fill="#DBB03B" transform="translate(627,423)"/>
<path d="M0 0 C0 0.99 0 1.98 0 3 C-2.31 3.66 -4.62 4.32 -7 5 C-7 4.34 -7 3.68 -7 3 C-4.4385343 0.70351351 -3.52032428 0 0 0 Z " fill="#EBB63A" transform="translate(510,384)"/>
<path d="M0 0 C0.99 0.33 1.98 0.66 3 1 C3 1.66 3 2.32 3 3 C2.0409375 3.433125 2.0409375 3.433125 1.0625 3.875 C-1.15206079 4.82823451 -1.15206079 4.82823451 -2 7 C-2.66 6.67 -3.32 6.34 -4 6 C-2.68 4.02 -1.36 2.04 0 0 Z " fill="#057982" transform="translate(387,316)"/>
</svg>
